<svg width="15" height="17" viewBox="0 0 15 17" fill="none" xmlns="http://www.w3.org/2000/svg">
<path d="M14.7627 12.3244L13.0316 10.0085V6.72578C13.0932 5.85295 12.8509 4.98371 12.3326 4.21857C11.8144 3.45343 11.0414 2.82362 10.1031 2.40196C10.1159 2.2676 10.1159 2.13262 10.1031 1.99826C10.093 1.72757 10.0177 1.46115 9.88135 1.21425C9.74503 0.967339 9.55044 0.744781 9.30868 0.559295C9.06693 0.373809 8.78275 0.229031 8.47241 0.133238C8.16206 0.0374446 7.83163 -0.00748554 7.5 0.00101576C7.16837 -0.00748554 6.83794 0.0374446 6.52759 0.133238C6.21725 0.229031 5.93307 0.373809 5.69132 0.559295C5.44956 0.744781 5.25497 0.967339 5.11865 1.21425C4.98233 1.46115 4.90697 1.72757 4.89688 1.99826C4.87771 2.13237 4.87771 2.26785 4.89688 2.40196C3.95855 2.82362 3.1856 3.45343 2.66737 4.21857C2.14914 4.98371 1.9068 5.85295 1.96836 6.72578V10.0085L0.237284 12.3244C0.0875434 12.5252 0.00576271 12.7548 0.000293555 12.9898C-0.0051756 13.2248 0.0658627 13.4567 0.206154 13.662C0.346444 13.8672 0.550961 14.0384 0.798819 14.1581C1.04668 14.2777 1.32899 14.3415 1.61694 14.3429H3.9207C3.98092 15.0775 4.38735 15.7644 5.0547 16.2596C5.72205 16.7548 6.59846 17.0197 7.5 16.9989C8.40154 17.0197 9.27794 16.7548 9.9453 16.2596C10.6127 15.7644 11.0191 15.0775 11.0793 14.3429H13.3831C13.671 14.3415 13.9533 14.2777 14.2012 14.1581C14.449 14.0384 14.6536 13.8672 14.7938 13.662C14.9341 13.4567 15.0052 13.2248 14.9997 12.9898C14.9942 12.7548 14.9125 12.5252 14.7627 12.3244ZM6.52383 1.99826C6.54697 1.80466 6.66213 1.62616 6.84461 1.50105C7.02709 1.37593 7.26237 1.31416 7.5 1.32897C7.73763 1.31416 7.97291 1.37593 8.15539 1.50105C8.33787 1.62616 8.45303 1.80466 8.47617 1.99826C8.1511 1.98165 7.82507 1.98165 7.5 1.99826C7.17494 1.98136 6.84889 1.98136 6.52383 1.99826ZM7.5 15.6709C7.0297 15.6902 6.56772 15.5643 6.20597 15.3183C5.84421 15.0722 5.60919 14.724 5.54766 14.3429H9.45234C9.39081 14.724 9.15578 15.0722 8.79403 15.3183C8.43228 15.5643 7.9703 15.6902 7.5 15.6709ZM1.61694 13.015L3.36103 10.7097L3.59531 10.3803V6.72578C3.59219 5.93018 3.86276 5.14984 4.37625 4.47357C4.73056 4.07723 5.20434 3.76234 5.75165 3.55945C6.29896 3.35657 6.90121 3.27256 7.5 3.31559C8.09879 3.27256 8.70104 3.35657 9.24835 3.55945C9.79566 3.76234 10.2694 4.07723 10.6237 4.47357C11.1372 5.14984 11.4078 5.93018 11.4047 6.72578V10.3803L11.639 10.7097L13.3831 13.015H1.61694Z" fill="#1F1F1F" fill-opacity="0.5"/>
</svg>
