<svg width="17" height="17" viewBox="0 0 17 17" fill="none" xmlns="http://www.w3.org/2000/svg">
<mask id="path-1-outside-1_98_34" maskUnits="userSpaceOnUse" x="0" y="0" width="17" height="17" fill="black">
<rect fill="white" width="17" height="17"/>
<path d="M11.5 15.49V15.99H12V15.49H11.5ZM1.5 15.49H1V15.99H1.5V15.49ZM15.5 15.5V16H16V15.5H15.5ZM9 4.498C8.99987 4.82617 8.9351 5.15111 8.80939 5.45425C8.68368 5.75739 8.4995 6.03281 8.26735 6.26477C8.03521 6.49673 7.75964 6.68069 7.4564 6.80616C7.15316 6.93162 6.82817 6.99613 6.5 6.996V7.996C8.433 7.996 10 6.43 10 4.498H9ZM6.5 6.996C6.17183 6.99613 5.84684 6.93162 5.5436 6.80616C5.24036 6.68069 4.96479 6.49673 4.73265 6.26477C4.5005 6.03281 4.31632 5.75739 4.19061 5.45425C4.0649 5.15111 4.00013 4.82617 4 4.498H3C3.00013 4.9575 3.09077 5.41247 3.26673 5.83693C3.44269 6.2614 3.70054 6.64705 4.02554 6.97187C4.35055 7.29669 4.73635 7.55432 5.16091 7.73004C5.58548 7.90576 6.0405 7.99613 6.5 7.996V6.996ZM4 4.498C4.00013 4.16983 4.0649 3.84489 4.19061 3.54175C4.31632 3.23861 4.5005 2.96319 4.73265 2.73123C4.96479 2.49927 5.24036 2.31531 5.5436 2.18984C5.84684 2.06438 6.17183 1.99987 6.5 2V1C6.0405 0.999869 5.58548 1.09024 5.16091 1.26596C4.73635 1.44168 4.35055 1.69931 4.02554 2.02413C3.70054 2.34895 3.44269 2.7346 3.26673 3.15907C3.09077 3.58353 3.00013 4.0385 3 4.498H4ZM6.5 2C7.16269 2 7.79828 2.26312 8.26706 2.73153C8.73584 3.19993 8.99947 3.83531 9 4.498H10C9.99987 4.0385 9.90923 3.58353 9.73327 3.15907C9.55731 2.7346 9.29947 2.34895 8.97446 2.02413C8.64945 1.69931 8.26365 1.44168 7.83909 1.26596C7.41452 1.09024 6.9595 0.999869 6.5 1V2ZM11.5 14.99H1.5V15.99H11.5V14.99ZM2 15.49V13.495H1V15.49H2ZM4.5 10.994H8.5V9.994H4.5V10.994ZM11 13.494V15.49H12V13.494H11ZM8.5 10.994C9.16304 10.994 9.79893 11.2574 10.2678 11.7262C10.7366 12.1951 11 12.831 11 13.494H12C12 12.5657 11.6313 11.6755 10.9749 11.0191C10.3185 10.3627 9.42826 9.994 8.5 9.994V10.994ZM2 13.495C2 12.832 2.26339 12.1951 2.73223 11.7262C3.20107 11.2574 3.83696 10.994 4.5 10.994V9.994C3.57174 9.994 2.6815 10.3627 2.02513 11.0191C1.36875 11.6755 1 12.5667 1 13.495H2ZM15 14V15.5H16V14H15ZM15.5 15H13V16H15.5V15ZM13 12C13.5304 12 14.0391 12.2107 14.4142 12.5858C14.7893 12.9609 15 13.4696 15 14H16C16 13.2044 15.6839 12.4413 15.1213 11.8787C14.5587 11.3161 13.7956 11 13 11V12ZM12.5 9C12.1022 9 11.7206 8.84196 11.4393 8.56066C11.158 8.27936 11 7.89782 11 7.5H10C10 8.16304 10.2634 8.79893 10.7322 9.26777C11.2011 9.73661 11.837 10 12.5 10V9ZM14 7.5C14 7.89782 13.842 8.27936 13.5607 8.56066C13.2794 8.84196 12.8978 9 12.5 9V10C13.163 10 13.7989 9.73661 14.2678 9.26777C14.7366 8.79893 15 8.16304 15 7.5H14ZM12.5 6C12.8978 6 13.2794 6.15804 13.5607 6.43934C13.842 6.72064 14 7.10218 14 7.5H15C15 6.83696 14.7366 6.20107 14.2678 5.73223C13.7989 5.26339 13.163 5 12.5 5V6ZM12.5 5C11.837 5 11.2011 5.26339 10.7322 5.73223C10.2634 6.20107 10 6.83696 10 7.5H11C11 7.10218 11.158 6.72064 11.4393 6.43934C11.7206 6.15804 12.1022 6 12.5 6V5Z"/>
</mask>
<path d="M11.5 15.49V15.99H12V15.49H11.5ZM1.5 15.49H1V15.99H1.5V15.49ZM15.5 15.5V16H16V15.5H15.5ZM9 4.498C8.99987 4.82617 8.9351 5.15111 8.80939 5.45425C8.68368 5.75739 8.4995 6.03281 8.26735 6.26477C8.03521 6.49673 7.75964 6.68069 7.4564 6.80616C7.15316 6.93162 6.82817 6.99613 6.5 6.996V7.996C8.433 7.996 10 6.43 10 4.498H9ZM6.5 6.996C6.17183 6.99613 5.84684 6.93162 5.5436 6.80616C5.24036 6.68069 4.96479 6.49673 4.73265 6.26477C4.5005 6.03281 4.31632 5.75739 4.19061 5.45425C4.0649 5.15111 4.00013 4.82617 4 4.498H3C3.00013 4.9575 3.09077 5.41247 3.26673 5.83693C3.44269 6.2614 3.70054 6.64705 4.02554 6.97187C4.35055 7.29669 4.73635 7.55432 5.16091 7.73004C5.58548 7.90576 6.0405 7.99613 6.5 7.996V6.996ZM4 4.498C4.00013 4.16983 4.0649 3.84489 4.19061 3.54175C4.31632 3.23861 4.5005 2.96319 4.73265 2.73123C4.96479 2.49927 5.24036 2.31531 5.5436 2.18984C5.84684 2.06438 6.17183 1.99987 6.5 2V1C6.0405 0.999869 5.58548 1.09024 5.16091 1.26596C4.73635 1.44168 4.35055 1.69931 4.02554 2.02413C3.70054 2.34895 3.44269 2.7346 3.26673 3.15907C3.09077 3.58353 3.00013 4.0385 3 4.498H4ZM6.5 2C7.16269 2 7.79828 2.26312 8.26706 2.73153C8.73584 3.19993 8.99947 3.83531 9 4.498H10C9.99987 4.0385 9.90923 3.58353 9.73327 3.15907C9.55731 2.7346 9.29947 2.34895 8.97446 2.02413C8.64945 1.69931 8.26365 1.44168 7.83909 1.26596C7.41452 1.09024 6.9595 0.999869 6.5 1V2ZM11.5 14.99H1.5V15.99H11.5V14.99ZM2 15.49V13.495H1V15.49H2ZM4.5 10.994H8.5V9.994H4.5V10.994ZM11 13.494V15.49H12V13.494H11ZM8.5 10.994C9.16304 10.994 9.79893 11.2574 10.2678 11.7262C10.7366 12.1951 11 12.831 11 13.494H12C12 12.5657 11.6313 11.6755 10.9749 11.0191C10.3185 10.3627 9.42826 9.994 8.5 9.994V10.994ZM2 13.495C2 12.832 2.26339 12.1951 2.73223 11.7262C3.20107 11.2574 3.83696 10.994 4.5 10.994V9.994C3.57174 9.994 2.6815 10.3627 2.02513 11.0191C1.36875 11.6755 1 12.5667 1 13.495H2ZM15 14V15.5H16V14H15ZM15.5 15H13V16H15.5V15ZM13 12C13.5304 12 14.0391 12.2107 14.4142 12.5858C14.7893 12.9609 15 13.4696 15 14H16C16 13.2044 15.6839 12.4413 15.1213 11.8787C14.5587 11.3161 13.7956 11 13 11V12ZM12.5 9C12.1022 9 11.7206 8.84196 11.4393 8.56066C11.158 8.27936 11 7.89782 11 7.5H10C10 8.16304 10.2634 8.79893 10.7322 9.26777C11.2011 9.73661 11.837 10 12.5 10V9ZM14 7.5C14 7.89782 13.842 8.27936 13.5607 8.56066C13.2794 8.84196 12.8978 9 12.5 9V10C13.163 10 13.7989 9.73661 14.2678 9.26777C14.7366 8.79893 15 8.16304 15 7.5H14ZM12.5 6C12.8978 6 13.2794 6.15804 13.5607 6.43934C13.842 6.72064 14 7.10218 14 7.5H15C15 6.83696 14.7366 6.20107 14.2678 5.73223C13.7989 5.26339 13.163 5 12.5 5V6ZM12.5 5C11.837 5 11.2011 5.26339 10.7322 5.73223C10.2634 6.20107 10 6.83696 10 7.5H11C11 7.10218 11.158 6.72064 11.4393 6.43934C11.7206 6.15804 12.1022 6 12.5 6V5Z" fill="#1F1F1F" fill-opacity="0.5"/>
<path d="M6.4 6.996V7.996H6.6V6.996H6.4ZM10 4.398H9V4.598H10V4.398ZM4 4.398H3V4.598H4V4.398ZM6.6 2V1H6.4V2H6.6ZM2 13.395H1V13.595H2V13.395ZM8.6 10.994V9.994H8.4V10.994H8.6ZM4.4 9.994V10.994H4.6V9.994H4.4ZM12 13.394H11V13.594H12V13.394ZM16 13.9H15V14.1H16V13.9ZM11 7.4H10V7.6H11V7.4ZM12.6 10V9H12.4V10H12.6ZM15 7.4H14V7.6H15V7.4ZM12.4 5V6H12.6V5H12.4ZM11.5 15.49V15.29H11.3V15.49H11.5ZM12 15.99V16.19H12.2V15.99H12ZM1.5 15.49H1.7V15.29H1.5V15.49ZM1 15.99H0.8V16.19H1V15.99ZM15.5 15.5V15.3H15.3V15.5H15.5ZM16 16V16.2H16.2V16H16ZM9 4.498L9.2 4.49808V4.49784L9 4.498ZM6.5 6.996L6.50008 6.796L6.49992 6.796L6.5 6.996ZM6.5 7.996V7.796H6.49994L6.5 7.996ZM10 4.498H10.2V4.49794L10 4.498ZM4 4.498L3.8 4.49792V4.49808L4 4.498ZM3 4.498L2.8 4.49794V4.49806L3 4.498ZM6.5 2L6.49992 2.2H6.5V2ZM6.5 1L6.49994 1.2L6.50006 1.2L6.5 1ZM11.5 14.99H11.7V14.79H11.5V14.99ZM1.5 14.99V14.79H1.3V14.99H1.5ZM2 15.49V15.69H2.2V15.49H2ZM2 13.495H1.8H2ZM1 13.495H0.8H1ZM11 15.49H10.8V15.69H11V15.49ZM12 13.494H11.8H12ZM15 15.5H14.8V15.7H15V15.5ZM15.5 15H15.7V14.8H15.5V15ZM13 15V14.8H12.8V15H13ZM13 16H12.8V16.2H13V16ZM13 12H12.8V12.2H13V12ZM13 11V10.8H12.8V11H13ZM11 7.5H10.8H11ZM10 7.5H9.8H10ZM14 7.5H14.2H14ZM15 7.5H14.8H15ZM12.5 6V5.8V6ZM12.5 5V4.8V5ZM11.3 15.49V15.99H11.7V15.49H11.3ZM11.5 16.19H12V15.79H11.5V16.19ZM12.2 15.99V15.49H11.8V15.99H12.2ZM12 15.29H11.5V15.69H12V15.29ZM1.5 15.29H1V15.69H1.5V15.29ZM0.8 15.49V15.99H1.2V15.49H0.8ZM1 16.19H1.5V15.79H1V16.19ZM1.7 15.99V15.49H1.3V15.99H1.7ZM15.3 15.5V16H15.7V15.5H15.3ZM15.5 16.2H16V15.8H15.5V16.2ZM16.2 16V15.5H15.8V16H16.2ZM16 15.3H15.5V15.7H16V15.3ZM8.8 4.49792C8.79988 4.79983 8.74029 5.09876 8.62465 5.37764L8.99414 5.53086C9.12991 5.20346 9.19986 4.85252 9.2 4.49808L8.8 4.49792ZM8.62465 5.37764C8.509 5.65652 8.33956 5.90989 8.12599 6.12329L8.40872 6.40625C8.65944 6.15572 8.85837 5.85826 8.99414 5.53086L8.62465 5.37764ZM8.12599 6.12329C7.91242 6.33669 7.65891 6.50593 7.37994 6.62135L7.53286 6.99096C7.86038 6.85546 8.15799 6.65677 8.40872 6.40625L8.12599 6.12329ZM7.37994 6.62135C7.10097 6.73677 6.80199 6.79612 6.50008 6.796L6.49992 7.196C6.85436 7.19614 7.20535 7.12647 7.53286 6.99096L7.37994 6.62135ZM6.5 8.196C8.54334 8.196 10.2 6.54057 10.2 4.498H9.8C9.8 6.31943 8.32265 7.796 6.5 7.796V8.196ZM6.49992 6.796C6.19801 6.79612 5.89903 6.73677 5.62006 6.62135L5.46714 6.99096C5.79465 7.12647 6.14564 7.19614 6.50008 7.196L6.49992 6.796ZM5.62006 6.62135C5.34109 6.50593 5.08758 6.33669 4.87401 6.12329L4.59128 6.40625C4.84201 6.65677 5.13962 6.85546 5.46714 6.99096L5.62006 6.62135ZM4.87401 6.12329C4.66044 5.90989 4.491 5.65652 4.37535 5.37764L4.00586 5.53086C4.14163 5.85826 4.34056 6.15572 4.59128 6.40625L4.87401 6.12329ZM4.37535 5.37764C4.25971 5.09876 4.20012 4.79983 4.2 4.49792L3.8 4.49808C3.80014 4.85252 3.87009 5.20346 4.00586 5.53086L4.37535 5.37764ZM2.8 4.49806C2.80014 4.98382 2.89595 5.46479 3.08197 5.91352L3.45148 5.76034C3.28558 5.36014 3.20012 4.93117 3.2 4.49794L2.8 4.49806ZM3.08197 5.91352C3.26799 6.36225 3.54058 6.76995 3.88416 7.11334L4.16692 6.83041C3.86049 6.52416 3.61739 6.16055 3.45148 5.76034L3.08197 5.91352ZM3.88416 7.11334C4.22774 7.45672 4.63559 7.72907 5.08443 7.91483L5.2374 7.54524C4.8371 7.37956 4.47335 7.13666 4.16692 6.83041L3.88416 7.11334ZM5.08443 7.91483C5.53327 8.1006 6.0143 8.19614 6.50006 8.196L6.49994 7.796C6.06671 7.79612 5.6377 7.71092 5.2374 7.54524L5.08443 7.91483ZM4.2 4.49808C4.20012 4.19617 4.25971 3.89724 4.37535 3.61836L4.00586 3.46514C3.87009 3.79254 3.80014 4.14348 3.8 4.49792L4.2 4.49808ZM4.37535 3.61836C4.491 3.33948 4.66044 3.08611 4.87401 2.87271L4.59128 2.58976C4.34056 2.84028 4.14163 3.13774 4.00586 3.46514L4.37535 3.61836ZM4.87401 2.87271C5.08758 2.65931 5.34109 2.49007 5.62006 2.37465L5.46714 2.00504C5.13962 2.14054 4.84201 2.33923 4.59128 2.58976L4.87401 2.87271ZM5.62006 2.37465C5.89903 2.25923 6.19801 2.19988 6.49992 2.2L6.50008 1.8C6.14564 1.79986 5.79465 1.86953 5.46714 2.00504L5.62006 2.37465ZM6.50006 0.8C6.0143 0.799861 5.53327 0.895401 5.08443 1.08117L5.2374 1.45076C5.6377 1.28508 6.06671 1.19988 6.49994 1.2L6.50006 0.8ZM5.08443 1.08117C4.63559 1.26693 4.22774 1.53928 3.88416 1.88266L4.16692 2.16559C4.47335 1.85934 4.8371 1.61644 5.2374 1.45076L5.08443 1.08117ZM3.88416 1.88266C3.54058 2.22605 3.26799 2.63375 3.08197 3.08248L3.45148 3.23566C3.61739 2.83545 3.86049 2.47184 4.16692 2.16559L3.88416 1.88266ZM3.08197 3.08248C2.89595 3.53121 2.80014 4.01218 2.8 4.49794L3.2 4.49806C3.20012 4.06483 3.28558 3.63586 3.45148 3.23566L3.08197 3.08248ZM6.5 2.2C7.10968 2.2 7.69441 2.44207 8.1257 2.873L8.40842 2.59005C7.90214 2.08417 7.21571 1.8 6.5 1.8V2.2ZM8.1257 2.873C8.55698 3.30394 8.79951 3.88848 8.8 4.49816L9.2 4.49784C9.19943 3.78213 8.91471 3.09593 8.40842 2.59005L8.1257 2.873ZM10.2 4.49794C10.1999 4.01218 10.104 3.53121 9.91803 3.08248L9.54852 3.23566C9.71442 3.63586 9.79988 4.06483 9.8 4.49806L10.2 4.49794ZM9.91803 3.08248C9.73201 2.63375 9.45942 2.22605 9.11584 1.88266L8.83308 2.16559C9.13951 2.47184 9.38261 2.83545 9.54852 3.23566L9.91803 3.08248ZM9.11584 1.88266C8.77226 1.53928 8.36441 1.26693 7.91557 1.08117L7.7626 1.45076C8.1629 1.61644 8.52665 1.85934 8.83308 2.16559L9.11584 1.88266ZM7.91557 1.08117C7.46673 0.895401 6.9857 0.799861 6.49994 0.8L6.50006 1.2C6.93329 1.19988 7.3623 1.28508 7.7626 1.45076L7.91557 1.08117ZM11.5 14.79H1.5V15.19H11.5V14.79ZM1.3 14.99V15.99H1.7V14.99H1.3ZM1.5 16.19H11.5V15.79H1.5V16.19ZM11.7 15.99V14.99H11.3V15.99H11.7ZM2.2 15.49V13.495H1.8V15.49H2.2ZM0.8 13.495V15.49H1.2V13.495H0.8ZM1 15.69H2V15.29H1V15.69ZM4.5 11.194H8.5V10.794H4.5V11.194ZM8.5 9.794H4.5V10.194H8.5V9.794ZM10.8 13.494V15.49H11.2V13.494H10.8ZM11 15.69H12V15.29H11V15.69ZM12.2 15.49V13.494H11.8V15.49H12.2ZM8.5 11.194C9.11 11.194 9.69501 11.4363 10.1263 11.8677L10.4092 11.5848C9.90284 11.0785 9.21608 10.794 8.5 10.794V11.194ZM10.1263 11.8677C10.5577 12.299 10.8 12.884 10.8 13.494H11.2C11.2 12.7779 10.9155 12.0912 10.4092 11.5848L10.1263 11.8677ZM12.2 13.494C12.2 12.5127 11.8102 11.5716 11.1163 10.8777L10.8335 11.1605C11.4523 11.7794 11.8 12.6188 11.8 13.494H12.2ZM11.1163 10.8777C10.4224 10.1838 9.4813 9.794 8.5 9.794V10.194C9.37521 10.194 10.2146 10.5417 10.8335 11.1605L11.1163 10.8777ZM2.2 13.495C2.2 12.8849 2.44238 12.2989 2.87365 11.8677L2.59081 11.5848C2.0844 12.0912 1.8 12.779 1.8 13.495H2.2ZM2.87365 11.8677C3.30499 11.4363 3.89 11.194 4.5 11.194V10.794C3.78392 10.794 3.09716 11.0785 2.59081 11.5848L2.87365 11.8677ZM4.5 9.794C3.5187 9.794 2.57759 10.1838 1.8837 10.8777L2.16655 11.1605C2.78542 10.5417 3.62479 10.194 4.5 10.194V9.794ZM1.8837 10.8777C1.18978 11.5716 0.8 12.5138 0.8 13.495H1.2C1.2 12.6197 1.54772 11.7794 2.16655 11.1605L1.8837 10.8777ZM14.8 14V15.5H15.2V14H14.8ZM15 15.7H16V15.3H15V15.7ZM16.2 15.5V14H15.8V15.5H16.2ZM15.5 14.8H13V15.2H15.5V14.8ZM12.8 15V16H13.2V15H12.8ZM13 16.2H15.5V15.8H13V16.2ZM15.7 16V15H15.3V16H15.7ZM13 12.2C13.4774 12.2 13.9352 12.3896 14.2728 12.7272L14.5556 12.4444C14.1431 12.0318 13.5835 11.8 13 11.8V12.2ZM14.2728 12.7272C14.6104 13.0648 14.8 13.5226 14.8 14H15.2C15.2 13.4165 14.9682 12.8569 14.5556 12.4444L14.2728 12.7272ZM16.2 14C16.2 13.1513 15.8629 12.3374 15.2627 11.7373L14.9799 12.0201C15.505 12.5452 15.8 13.2574 15.8 14H16.2ZM15.2627 11.7373C14.6626 11.1371 13.8487 10.8 13 10.8V11.2C13.7426 11.2 14.4548 11.495 14.9799 12.0201L15.2627 11.7373ZM12.8 11V12H13.2V11H12.8ZM12.5 8.8C12.1552 8.8 11.8246 8.66304 11.5808 8.41924L11.2979 8.70208C11.6167 9.02089 12.0491 9.2 12.5 9.2V8.8ZM11.5808 8.41924C11.337 8.17544 11.2 7.84478 11.2 7.5H10.8C10.8 7.95087 10.9791 8.38327 11.2979 8.70208L11.5808 8.41924ZM9.8 7.5C9.8 8.21608 10.0845 8.90284 10.5908 9.40919L10.8737 9.12635C10.4423 8.69501 10.2 8.11 10.2 7.5H9.8ZM10.5908 9.40919C11.0972 9.91554 11.7839 10.2 12.5 10.2V9.8C11.89 9.8 11.305 9.55768 10.8737 9.12635L10.5908 9.40919ZM13.8 7.5C13.8 7.84478 13.663 8.17544 13.4192 8.41924L13.7021 8.70208C14.0209 8.38327 14.2 7.95087 14.2 7.5H13.8ZM13.4192 8.41924C13.1754 8.66304 12.8448 8.8 12.5 8.8V9.2C12.9509 9.2 13.3833 9.02089 13.7021 8.70208L13.4192 8.41924ZM12.5 10.2C13.2161 10.2 13.9028 9.91554 14.4092 9.40919L14.1263 9.12635C13.695 9.55768 13.11 9.8 12.5 9.8V10.2ZM14.4092 9.40919C14.9155 8.90284 15.2 8.21608 15.2 7.5H14.8C14.8 8.11 14.5577 8.69501 14.1263 9.12635L14.4092 9.40919ZM12.5 6.2C12.8448 6.2 13.1754 6.33696 13.4192 6.58076L13.7021 6.29792C13.3833 5.97911 12.9509 5.8 12.5 5.8V6.2ZM13.4192 6.58076C13.663 6.82456 13.8 7.15522 13.8 7.5H14.2C14.2 7.04913 14.0209 6.61673 13.7021 6.29792L13.4192 6.58076ZM15.2 7.5C15.2 6.78392 14.9155 6.09716 14.4092 5.59081L14.1263 5.87365C14.5577 6.30499 14.8 6.89 14.8 7.5H15.2ZM14.4092 5.59081C13.9028 5.08446 13.2161 4.8 12.5 4.8V5.2C13.11 5.2 13.695 5.44232 14.1263 5.87365L14.4092 5.59081ZM12.5 4.8C11.7839 4.8 11.0972 5.08446 10.5908 5.59081L10.8737 5.87365C11.305 5.44232 11.89 5.2 12.5 5.2V4.8ZM10.5908 5.59081C10.0845 6.09716 9.8 6.78392 9.8 7.5H10.2C10.2 6.89 10.4423 6.30499 10.8737 5.87365L10.5908 5.59081ZM11.2 7.5C11.2 7.15522 11.337 6.82456 11.5808 6.58076L11.2979 6.29792C10.9791 6.61673 10.8 7.04913 10.8 7.5H11.2ZM11.5808 6.58076C11.8246 6.33696 12.1552 6.2 12.5 6.2V5.8C12.0491 5.8 11.6167 5.97911 11.2979 6.29792L11.5808 6.58076Z" fill="#1F1F1F" fill-opacity="0.5" mask="url(#path-1-outside-1_98_34)"/>
</svg>
