<svg width="18" height="13" viewBox="0 0 18 13" fill="none" xmlns="http://www.w3.org/2000/svg">
<path d="M15.8571 1H2.14286C1.83975 1 1.54906 1.12041 1.33474 1.33474C1.12041 1.54906 1 1.83975 1 2.14286V11.2857C1 11.5888 1.12041 11.8795 1.33474 12.0938C1.54906 12.3082 1.83975 12.4286 2.14286 12.4286H15.8571C16.1602 12.4286 16.4509 12.3082 16.6653 12.0938C16.8796 11.8795 17 11.5888 17 11.2857V2.14286C17 1.83975 16.8796 1.54906 16.6653 1.33474C16.4509 1.12041 16.1602 1 15.8571 1ZM14.6 2.14286L9 6.01714L3.4 2.14286H14.6ZM2.14286 11.2857V2.66286L8.67429 7.18286C8.76994 7.24922 8.88358 7.28478 9 7.28478C9.11642 7.28478 9.23006 7.24922 9.32571 7.18286L15.8571 2.66286V11.2857H2.14286Z" fill="#1F1F1F" fill-opacity="0.5"/>
<path d="M2.24286 2.85367V11.1857H15.7571V2.85367L9.38271 7.26502L9.38262 7.26509L9.32571 7.18286C9.23006 7.24922 9.11642 7.28478 9 7.28478C8.88358 7.28478 8.76994 7.24922 8.67429 7.18286L2.24286 2.85367ZM2.24286 2.85367L8.61729 7.26502M15.8571 0.9H2.14286C1.81323 0.9 1.49711 1.03094 1.26402 1.26402C1.03094 1.49711 0.9 1.81323 0.9 2.14286V11.2857C0.9 11.6153 1.03094 11.9315 1.26402 12.1645C1.49711 12.3976 1.81323 12.5286 2.14286 12.5286H15.8571C16.1868 12.5286 16.5029 12.3976 16.736 12.1645C16.9691 11.9315 17.1 11.6153 17.1 11.2857V2.14286C17.1 1.81323 16.9691 1.49711 16.736 1.26402C16.5029 1.03094 16.1868 0.9 15.8571 0.9ZM9 5.89554L3.72031 2.24286H14.2797L9 5.89554Z" stroke="#1F1F1F" stroke-opacity="0.5" stroke-width="0.2"/>
</svg>
