<svg width="26" height="19" viewBox="0 0 26 19" fill="none" xmlns="http://www.w3.org/2000/svg">
<path d="M2.88889 0C2.12271 0 1.38791 0.304364 0.846136 0.846136C0.304364 1.38791 0 2.12271 0 2.88889L0 15.8889C0 16.6551 0.304364 17.3899 0.846136 17.9316C1.38791 18.4734 2.12271 18.7778 2.88889 18.7778H8.66667V0H2.88889Z" fill="#009A49"/>
<path d="M8.6665 0H17.3332V18.7778H8.6665V0Z" fill="#EEEEEE"/>
<path d="M23.1113 0H17.3335V18.7778H23.1113C23.8775 18.7778 24.6123 18.4734 25.154 17.9316C25.6958 17.3899 26.0002 16.6551 26.0002 15.8889V2.88889C26.0002 2.12271 25.6958 1.38791 25.154 0.846136C24.6123 0.304364 23.8775 0 23.1113 0Z" fill="#009A49"/>
</svg>
