<svg width="15" height="13" viewBox="0 0 15 13" fill="none" xmlns="http://www.w3.org/2000/svg">
<path d="M8.57143 0C6.86647 0 5.23133 0.677294 4.02574 1.88288C2.82015 3.08848 2.14286 4.72361 2.14286 6.42857H0L2.77857 9.20714L2.82857 9.30714L5.71429 6.42857H3.57143C3.57143 3.66429 5.80714 1.42857 8.57143 1.42857C11.3357 1.42857 13.5714 3.66429 13.5714 6.42857C13.5714 9.19286 11.3357 11.4286 8.57143 11.4286C7.19286 11.4286 5.94286 10.8643 5.04286 9.95714L4.02857 10.9714C4.62387 11.57 5.33178 12.0448 6.11147 12.3685C6.89117 12.6921 7.72723 12.8582 8.57143 12.8571C10.2764 12.8571 11.9115 12.1798 13.1171 10.9743C14.3227 9.76867 15 8.13353 15 6.42857C15 4.72361 14.3227 3.08848 13.1171 1.88288C11.9115 0.677294 10.2764 2.54059e-08 8.57143 0ZM7.85714 3.57143V7.14286L10.8929 8.94286L11.4429 8.02857L8.92857 6.53571V3.57143H7.85714Z" fill="#1F1F1F" fill-opacity="0.5"/>
</svg>
