<svg width="17" height="16" viewBox="0 0 17 16" fill="none" xmlns="http://www.w3.org/2000/svg">
<path d="M15.1176 8H6.73529M13.3529 10.625L16 8L13.3529 5.375M8.94118 3.625V2.75C8.94118 2.28587 8.75525 1.84075 8.42431 1.51256C8.09336 1.18437 7.6445 1 7.17647 1H2.76471C2.29668 1 1.84782 1.18437 1.51687 1.51256C1.18592 1.84075 1 2.28587 1 2.75V13.25C1 13.7141 1.18592 14.1592 1.51687 14.4874C1.84782 14.8156 2.29668 15 2.76471 15H7.17647C7.6445 15 8.09336 14.8156 8.42431 14.4874C8.75525 14.1592 8.94118 13.7141 8.94118 13.25V12.375" stroke="#D30A0A" stroke-width="1.5" stroke-linecap="round" stroke-linejoin="round"/>
</svg>
