<svg width="32" height="36" viewBox="0 0 32 36" fill="none" xmlns="http://www.w3.org/2000/svg">
<path d="M14.8768 18.7819L8.27607 31.6083C8.27607 31.6083 4.73982 29.3564 3.32553 27.1829C2.38784 25.7418 2.02965 24.7973 1.60034 23.1324C1.17384 21.4785 1 20.49 1 18.7819C1 17.0739 1.1236 16.0716 1.60034 14.4315C2.03056 12.9513 2.50205 12.1793 3.29792 10.8763L3.32553 10.8311C4.08889 9.5811 4.5472 8.8734 5.57577 7.83073C6.70721 6.6838 7.47867 6.15715 8.87614 5.35546C10.0706 4.67022 10.7752 4.30067 12.1015 3.9303C13.4663 3.5492 15.7019 3.48025 15.7019 3.48025L16.7517 2.50515L18.5522 0.554932L8.87614 18.7819H14.8768Z" fill="#413A55" fill-opacity="0.28" stroke="#D9D9D9" stroke-width="0.150016"/>
<path d="M19.6026 13.0814L26.5034 1.98022L25.8283 6.48072C25.8283 6.48072 26.773 7.31903 27.3285 7.90588C28.8314 9.49353 29.6551 10.4885 30.5538 12.4814C31.3979 14.3531 31.702 15.5327 31.829 17.5819C31.94 19.374 31.7913 20.41 31.3789 22.1574C30.9379 24.0263 30.5937 25.103 29.5787 26.7329C28.6246 28.2652 27.8661 28.9997 26.5034 30.1833C25.0988 31.4034 24.2365 32.0722 22.528 32.8086C21.0013 33.4666 20.0509 33.643 18.4025 33.8587C16.6017 34.0945 15.5318 34.22 13.752 33.8587C12.5354 33.6118 10.7517 32.8086 10.7517 32.8086L6.32617 35.5839L6.77622 34.8338L19.6026 20.7323L26.5034 13.0814L19.6026 13.5315V13.0814Z" fill="#330BA6" stroke="#D9D9D9" stroke-width="0.150016"/>
</svg>
