<svg width="16" height="19" viewBox="0 0 16 19" fill="none" xmlns="http://www.w3.org/2000/svg">
<path d="M8 14.4762C7.46957 14.4762 6.96086 14.2855 6.58579 13.9462C6.21071 13.6068 6 13.1466 6 12.6667C6 11.6624 6.89 10.8571 8 10.8571C8.53043 10.8571 9.03914 11.0478 9.41421 11.3871C9.78929 11.7265 10 12.1868 10 12.6667C10 13.1466 9.78929 13.6068 9.41421 13.9462C9.03914 14.2855 8.53043 14.4762 8 14.4762ZM14 17.1905V8.14286H2V17.1905H14ZM14 6.33333C14.5304 6.33333 15.0391 6.52398 15.4142 6.86333C15.7893 7.20268 16 7.66294 16 8.14286V17.1905C16 17.6704 15.7893 18.1307 15.4142 18.47C15.0391 18.8094 14.5304 19 14 19H2C1.46957 19 0.960859 18.8094 0.585786 18.47C0.210714 18.1307 0 17.6704 0 17.1905V8.14286C0 7.13857 0.89 6.33333 2 6.33333H3V4.52381C3 3.32402 3.52678 2.17337 4.46447 1.32499C5.40215 0.476614 6.67392 0 8 0C8.65661 0 9.30679 0.117012 9.91342 0.344355C10.52 0.571697 11.0712 0.904919 11.5355 1.32499C11.9998 1.74507 12.3681 2.24377 12.6194 2.79262C12.8707 3.34148 13 3.92973 13 4.52381V6.33333H14ZM8 1.80952C7.20435 1.80952 6.44129 2.09549 5.87868 2.60452C5.31607 3.11355 5 3.80394 5 4.52381V6.33333H11V4.52381C11 3.80394 10.6839 3.11355 10.1213 2.60452C9.55871 2.09549 8.79565 1.80952 8 1.80952Z" fill="#1F1F1F" fill-opacity="0.5"/>
</svg>
