<svg width="34" height="34" viewBox="0 0 34 34" fill="none" xmlns="http://www.w3.org/2000/svg">
<circle cx="17" cy="17" r="17" fill="#330BA6" fill-opacity="0.1"/>
<path d="M8.0957 23.7798C8.0957 22.6526 8.54347 21.5716 9.3405 20.7746C10.1375 19.9776 11.2185 19.5298 12.3457 19.5298H20.8457C21.9729 19.5298 23.0539 19.9776 23.8509 20.7746C24.6479 21.5716 25.0957 22.6526 25.0957 23.7798C25.0957 24.3434 24.8718 24.8839 24.4733 25.2824C24.0748 25.6809 23.5343 25.9048 22.9707 25.9048H10.2207C9.65712 25.9048 9.11662 25.6809 8.7181 25.2824C8.31959 24.8839 8.0957 24.3434 8.0957 23.7798Z" stroke="#1F1F1F" stroke-opacity="0.5" stroke-width="2.125" stroke-linejoin="round"/>
<path d="M16.5957 15.2798C18.3561 15.2798 19.7832 13.8527 19.7832 12.0923C19.7832 10.3319 18.3561 8.90479 16.5957 8.90479C14.8353 8.90479 13.4082 10.3319 13.4082 12.0923C13.4082 13.8527 14.8353 15.2798 16.5957 15.2798Z" stroke="#1F1F1F" stroke-opacity="0.5" stroke-width="2.125"/>
</svg>
