<svg width="17" height="18" viewBox="0 0 17 18" fill="none" xmlns="http://www.w3.org/2000/svg">
<path d="M8.49974 11.4C9.81775 11.4 10.8862 10.3255 10.8862 8.99998C10.8862 7.67449 9.81775 6.59998 8.49974 6.59998C7.18174 6.59998 6.11328 7.67449 6.11328 8.99998C6.11328 10.3255 7.18174 11.4 8.49974 11.4Z" stroke="#1F1F1F" stroke-opacity="0.5" stroke-width="1.5"/>
<path d="M9.90403 1.1216C9.61209 1 9.24139 1 8.5 1C7.75861 1 7.38791 1 7.09597 1.1216C6.90281 1.20201 6.7273 1.31992 6.57947 1.46858C6.43165 1.61724 6.31441 1.79374 6.23445 1.988C6.16127 2.1664 6.13183 2.3752 6.1207 2.6784C6.11574 2.89759 6.05547 3.11192 5.94554 3.30126C5.83561 3.49059 5.67964 3.64872 5.49226 3.7608C5.30206 3.86803 5.08787 3.92488 4.86982 3.926C4.65177 3.92712 4.43702 3.87248 4.24573 3.7672C3.97845 3.6248 3.78515 3.5464 3.59344 3.5208C3.17526 3.4655 2.75237 3.57945 2.41771 3.8376C2.16792 4.032 1.98178 4.3544 1.61108 5C1.24038 5.6456 1.05424 5.968 1.01367 6.284C0.986334 6.49236 1.00008 6.7041 1.05413 6.90712C1.10818 7.11013 1.20148 7.30045 1.32868 7.4672C1.44642 7.6208 1.61108 7.7496 1.86643 7.9112C2.2427 8.1488 2.48453 8.5536 2.48453 9C2.48453 9.4464 2.2427 9.8512 1.86643 10.088C1.61108 10.2504 1.44562 10.3792 1.32868 10.5328C1.20148 10.6995 1.10818 10.8899 1.05413 11.0929C1.00008 11.2959 0.986334 11.5076 1.01367 11.716C1.05504 12.0312 1.24038 12.3544 1.61029 13C1.98178 13.6456 2.16713 13.968 2.41771 14.1624C2.58351 14.2903 2.77276 14.3841 2.97463 14.4385C3.1765 14.4929 3.38704 14.5067 3.59423 14.4792C3.78515 14.4536 3.97845 14.3752 4.24573 14.2328C4.43702 14.1275 4.65177 14.0729 4.86982 14.074C5.08787 14.0751 5.30206 14.132 5.49226 14.2392C5.87648 14.4632 6.10479 14.8752 6.1207 15.3216C6.13183 15.6256 6.16047 15.8336 6.23445 16.012C6.31441 16.2063 6.43165 16.3828 6.57947 16.5314C6.7273 16.6801 6.90281 16.798 7.09597 16.8784C7.38791 17 7.75861 17 8.5 17C9.24139 17 9.61209 17 9.90403 16.8784C10.0972 16.798 10.2727 16.6801 10.4205 16.5314C10.5683 16.3828 10.6856 16.2063 10.7655 16.012C10.8387 15.8336 10.8682 15.6256 10.8793 15.3216C10.8952 14.8752 11.1235 14.4624 11.5077 14.2392C11.6979 14.132 11.9121 14.0751 12.1302 14.074C12.3482 14.0729 12.563 14.1275 12.7543 14.2328C13.0215 14.3752 13.2149 14.4536 13.4058 14.4792C13.613 14.5067 13.8235 14.4929 14.0254 14.4385C14.2272 14.3841 14.4165 14.2903 14.5823 14.1624C14.8329 13.9688 15.0182 13.6456 15.3889 13C15.7596 12.3544 15.9458 12.032 15.9863 11.716C16.0137 11.5076 15.9999 11.2959 15.9459 11.0929C15.8918 10.8899 15.7985 10.6995 15.6713 10.5328C15.5536 10.3792 15.3889 10.2504 15.1336 10.0888C14.9472 9.97489 14.7927 9.8152 14.6846 9.62474C14.5765 9.43428 14.5183 9.2193 14.5155 9C14.5155 8.5536 14.7573 8.1488 15.1336 7.912C15.3889 7.7496 15.5544 7.6208 15.6713 7.4672C15.7985 7.30045 15.8918 7.11013 15.9459 6.90712C15.9999 6.7041 16.0137 6.49236 15.9863 6.284C15.945 5.9688 15.7596 5.6456 15.3897 5C15.0182 4.3544 14.8329 4.032 14.5823 3.8376C14.4165 3.70967 14.2272 3.61585 14.0254 3.56149C13.8235 3.50714 13.613 3.49331 13.4058 3.5208C13.2149 3.5464 13.0215 3.6248 12.7535 3.7672C12.5623 3.87233 12.3477 3.9269 12.1298 3.92578C11.9119 3.92466 11.6978 3.86789 11.5077 3.7608C11.3204 3.64872 11.1644 3.49059 11.0545 3.30126C10.9445 3.11192 10.8843 2.89759 10.8793 2.6784C10.8682 2.3744 10.8395 2.1664 10.7655 1.988C10.6856 1.79374 10.5683 1.61724 10.4205 1.46858C10.2727 1.31992 10.0972 1.20201 9.90403 1.1216Z" stroke="#1F1F1F" stroke-opacity="0.5" stroke-width="1.5"/>
</svg>
