<svg width="17" height="17" viewBox="0 0 17 17" fill="none" xmlns="http://www.w3.org/2000/svg">
<path d="M11.3803 1.00003C8.82219 1.00003 6.76068 3.06155 6.76068 5.61967C6.76068 5.75538 6.78204 5.93901 6.79706 6.10705L1.85231 11.0512C1.58221 11.3196 1.36785 11.6387 1.22158 11.9902C1.0753 12.3417 1 12.7187 1 13.0995C1 13.4802 1.0753 13.8572 1.22158 14.2087C1.36785 14.5602 1.58221 14.8793 1.85231 15.1477C2.12066 15.4178 2.43977 15.6321 2.7913 15.7784C3.14282 15.9247 3.5198 16 3.90054 16C4.28128 16 4.65826 15.9247 5.00978 15.7784C5.36131 15.6321 5.68043 15.4178 5.94877 15.1477L10.8929 10.2029C11.0604 10.218 11.2452 10.2393 11.3803 10.2393C13.9384 10.2393 16 8.1778 16 5.61967C16.003 4.87533 15.8166 4.14246 15.4583 3.49002L15.0974 2.82248L14.5563 3.36413L12.0658 5.83564L11.1638 4.93366L13.6353 2.44367L14.1781 1.90201L13.51 1.5411C12.8573 1.1835 12.1245 0.997336 11.3803 1.00003ZM11.3803 2.15494C11.661 2.15494 11.87 2.27621 12.1195 2.33568L9.93668 4.51847L9.52092 4.93423L9.93668 5.33095L11.669 7.06331L12.0663 7.47908L12.481 7.06331L14.6649 4.88053C14.7244 5.12999 14.8451 5.33903 14.8451 5.61967C14.8451 7.5657 13.3263 9.08441 11.3803 9.08441C11.1493 9.08441 10.9646 9.08441 10.8202 9.04803L10.5141 8.95795L10.2797 9.19297L5.1363 14.3364C4.42603 15.0466 3.37506 15.0466 2.66479 14.3364L2.64631 14.3179C1.95336 13.6076 1.95914 12.5682 2.66363 11.8637L7.80703 6.72088L8.04205 6.48644L7.95081 6.18038C7.91617 6.03602 7.91501 5.85123 7.91501 5.62025C7.91501 3.67423 9.43372 2.15552 11.3797 2.15552L11.3803 2.15494Z" fill="#1F1F1F" fill-opacity="0.5"/>
<path d="M14.4859 3.29315L15.0267 2.75181L15.1215 2.65683L15.1854 2.77492L15.546 3.44188C15.546 3.44196 15.5461 3.44204 15.5461 3.44213C15.9124 4.10931 16.103 4.85871 16.1 5.61985M14.4859 3.29315L1.85231 11.0512C1.58221 11.3196 1.36785 11.6387 1.22158 11.9902C1.0753 12.3417 1 12.7187 1 13.0995C1 13.4802 1.0753 13.8572 1.22158 14.2087C1.36785 14.5602 1.58221 14.8793 1.85231 15.1477L1.78137 15.2182C1.78145 15.2183 1.78153 15.2183 1.78162 15.2184C2.05921 15.4978 2.38929 15.7195 2.75288 15.8707C3.11657 16.0221 3.50661 16.1 3.90054 16.1C4.29447 16.1 4.68451 16.0221 5.0482 15.8707C5.41184 15.7194 5.74196 15.4977 6.01957 15.2183C6.01962 15.2183 6.01967 15.2182 6.01971 15.2182L10.9305 10.3068C10.9509 10.3087 10.9716 10.3107 10.9925 10.3127C11.1272 10.3257 11.2697 10.3393 11.3803 10.3393C13.9936 10.3393 16.0999 8.23313 16.1 5.61985M14.4859 3.29315L14.4856 3.29346L12.066 5.69449L11.3049 4.93339L13.7059 2.51445L13.7063 2.51411L14.2487 1.9728L14.3438 1.87789L14.2256 1.81403L13.558 1.45341C13.5579 1.45335 13.5578 1.4533 13.5577 1.45325C12.8903 1.08765 12.1411 0.897306 11.3801 0.900029M14.4859 3.29315L1.7817 10.9804C1.78174 10.9804 1.78178 10.9803 1.78183 10.9803L6.69319 6.06949C6.69121 6.04836 6.68915 6.0269 6.68707 6.00525C6.67421 5.8712 6.66068 5.7302 6.66068 5.61967C6.66068 3.00638 8.76687 0.900126 11.3801 0.900029M16.1 5.61985C16.1 5.61993 16.1 5.62001 16.1 5.62008L16 5.61967H16.1C16.1 5.61973 16.1 5.61979 16.1 5.61985ZM11.3801 0.900029C11.3801 0.900029 11.38 0.900029 11.38 0.900029L11.3803 1.00003V0.900029C11.3803 0.900029 11.3802 0.900029 11.3801 0.900029ZM11.8355 2.35316C11.866 2.36356 11.8972 2.37424 11.9291 2.38465L9.86597 4.44776L9.4502 4.86352L9.37782 4.93591L9.45188 5.00658L9.86679 5.40248L11.5975 7.13324L11.994 7.54817L12.0648 7.62223L12.1371 7.54969L12.5516 7.13404L12.5518 7.13393L14.6159 5.07092C14.6262 5.10252 14.6367 5.13354 14.647 5.16376C14.6594 5.19998 14.6713 5.23507 14.682 5.26865C14.7182 5.38295 14.7451 5.49416 14.7451 5.61967C14.7451 7.51047 13.2711 8.98441 11.3803 8.98441C11.1457 8.98441 10.9758 8.98372 10.8465 8.95152L10.5424 8.86202L10.4853 8.84523L10.4433 8.88732L10.209 9.12226L10.2089 9.12235L5.06558 14.2657C4.39437 14.9369 3.40671 14.9369 2.7355 14.2657L2.66479 14.3364L2.7355 14.2657L2.71789 14.2481C2.71775 14.2479 2.71761 14.2478 2.71747 14.2476C2.06323 13.5766 2.06864 12.6001 2.73434 11.9344L7.87765 6.79168L7.87773 6.7916L8.11267 6.55723L8.15494 6.51507L8.13788 6.45787L8.04744 6.15449C8.01674 6.02442 8.01501 5.85363 8.01501 5.62025C8.01501 3.72945 9.48895 2.25552 11.3797 2.25552H11.4121C11.5248 2.25961 11.6267 2.28499 11.7312 2.31829C11.7646 2.32893 11.7995 2.34085 11.8355 2.35316Z" stroke="#1F1F1F" stroke-opacity="0.5" stroke-width="0.2"/>
</svg>
