<svg width="150" height="47" viewBox="0 0 150 47" fill="none" xmlns="http://www.w3.org/2000/svg">
<path d="M14.8768 21.7819L8.27607 34.6083C8.27607 34.6083 4.73982 32.3564 3.32553 30.1829C2.38784 28.7418 2.02965 27.7973 1.60034 26.1324C1.17384 24.4785 1 23.49 1 21.7819C1 20.0739 1.1236 19.0716 1.60034 17.4315C2.03056 15.9513 2.50205 15.1793 3.29792 13.8763L3.32553 13.8311C4.08889 12.5811 4.5472 11.8734 5.57577 10.8307C6.70721 9.6838 7.47867 9.15715 8.87614 8.35546C10.0706 7.67022 10.7752 7.30067 12.1015 6.9303C13.4663 6.5492 15.7019 6.48025 15.7019 6.48025L16.7517 5.50515L18.5522 3.55493L8.87614 21.7819H14.8768Z" fill="#413A55" fill-opacity="0.28" stroke="#D9D9D9" stroke-width="0.150016"/>
<path d="M19.6026 16.0814L26.5034 4.98022L25.8283 9.48072C25.8283 9.48072 26.773 10.319 27.3285 10.9059C28.8314 12.4935 29.6551 13.4885 30.5538 15.4814C31.3979 17.3531 31.702 18.5327 31.829 20.5819C31.94 22.374 31.7913 23.41 31.3789 25.1574C30.9379 27.0263 30.5937 28.103 29.5787 29.7329C28.6246 31.2652 27.8661 31.9997 26.5034 33.1833C25.0988 34.4034 24.2365 35.0722 22.528 35.8086C21.0013 36.4666 20.0509 36.643 18.4025 36.8587C16.6017 37.0945 15.5318 37.22 13.752 36.8587C12.5354 36.6118 10.7517 35.8086 10.7517 35.8086L6.32617 38.5839L6.77622 37.8338L19.6026 23.7323L26.5034 16.0814L19.6026 16.5315V16.0814Z" fill="#330BA6" stroke="#D9D9D9" stroke-width="0.150016"/>
<path d="M60.4057 12.3071C60.4057 12.5062 60.2067 12.6057 59.8085 12.6057C59.4104 12.6057 59.2114 12.4777 59.2114 12.2218C59.2114 12.1365 59.2114 11.9374 59.2114 11.6246C59.2114 11.2834 59.1403 10.871 58.9981 10.3876C57.9459 8.59605 56.5241 7.70028 54.7325 7.70028C53.4244 7.70028 52.23 8.12684 51.1494 8.97995C50.0688 9.83307 49.5285 10.9421 49.5285 12.3071C49.5285 13.8712 50.6233 15.6627 52.813 17.6817C53.723 18.5064 54.6188 19.388 55.5003 20.3264C56.4103 21.2364 57.1781 22.317 57.8037 23.5682C58.4578 24.8195 58.7848 26.1276 58.7848 27.4926C58.7848 30.1088 57.8748 32.1136 56.0548 33.507C54.2349 34.872 52.0168 35.5545 49.4005 35.5545C46.8127 35.5545 44.5946 34.7441 42.7462 33.1231C42.3765 33.8056 42.1348 34.3886 42.0211 34.872C41.9073 35.0427 41.7083 35.128 41.4239 35.128C41.0258 35.128 40.8267 34.9573 40.8267 34.6161C40.8267 34.3886 40.9262 34.09 41.1253 33.7203C42.0069 32.0141 42.5756 30.7771 42.8315 30.0093C43.0875 29.2415 43.2297 28.8291 43.2581 28.7723C43.2865 28.6869 43.3434 28.559 43.4287 28.3883C43.514 28.1893 43.5851 28.0613 43.642 28.0044C43.7273 27.9476 43.8268 27.8765 43.9406 27.7912C44.1396 27.649 44.4667 27.6774 44.9217 27.8765C44.6089 28.8718 44.3956 29.6111 44.2818 30.0946C44.8221 31.0899 45.6042 31.9288 46.6279 32.6113C47.6801 33.2938 48.8033 33.635 49.9977 33.635C51.1921 33.635 52.2727 33.2369 53.2396 32.4407C54.2349 31.6444 54.7325 30.5496 54.7325 29.1562C54.7325 27.6205 53.6945 25.8148 51.6186 23.7389C50.7371 22.8573 49.8697 21.9615 49.0166 21.0515C48.1635 20.1131 47.4241 19.0467 46.7985 17.8524C46.2013 16.6296 45.9028 15.3925 45.9028 14.1413C45.9028 11.4966 46.8412 9.40651 48.718 7.8709C50.5949 6.30686 52.7988 5.52483 55.3297 5.52483C57.0928 5.52483 58.6711 5.89452 60.0645 6.63388L60.4484 5.69546C60.5337 5.52483 60.6332 5.43952 60.747 5.43952C60.9176 5.43952 61.1735 5.59593 61.5148 5.90873C60.7754 8.12684 60.4057 10.0463 60.4057 11.6673C60.4057 11.8948 60.4057 12.108 60.4057 12.3071ZM83.7882 19.5017L86.3831 19.4306C86.549 19.4306 86.6319 19.5847 86.6319 19.8927C86.6319 20.2008 86.549 20.3548 86.3831 20.3548H85.4589C85.1982 20.3548 85.0087 20.4615 84.8902 20.6748C84.2266 21.7648 83.1839 24.1702 81.7621 27.8907C80.3639 31.5875 79.4634 34.1232 79.0605 35.4977C78.9657 35.7109 78.7288 35.8176 78.3496 35.8176C77.9941 35.8176 77.769 35.6991 77.6742 35.4621C77.2003 33.6374 75.9798 30.3908 74.0129 25.7224C72.2119 30.2249 71.0152 33.4833 70.4227 35.4977C70.3279 35.7109 70.091 35.8176 69.7118 35.8176C69.3563 35.8176 69.1312 35.6991 69.0364 35.4621C68.4914 33.2582 66.56 28.6846 63.2423 21.7411C62.958 21.1724 62.6973 20.8051 62.4603 20.6392C62.2233 20.4733 61.856 20.3904 61.3584 20.3904C61.2162 20.3904 61.1451 20.2363 61.1451 19.9283C61.1451 19.5965 61.2162 19.4306 61.3584 19.4306L64.7353 19.5017L68.0411 19.4306C68.1833 19.4306 68.2544 19.5847 68.2544 19.8927C68.2544 20.2008 68.1833 20.3548 68.0411 20.3548H66.8681C66.6074 20.3548 66.4771 20.4615 66.4771 20.6748C66.4771 20.7932 66.714 21.4686 67.188 22.7009C68.8705 27.1087 69.9843 30.0946 70.5294 31.6586C70.8848 30.4263 71.7617 27.8078 73.1598 23.8028C72.3778 21.9544 71.8327 20.9236 71.5247 20.7103C71.2403 20.497 70.8493 20.3904 70.3516 20.3904C70.2095 20.3904 70.1384 20.2363 70.1384 19.9283C70.1384 19.5965 70.2095 19.4306 70.3516 19.4306L73.7286 19.5017L77.5676 19.4306C77.7098 19.4306 77.7809 19.5847 77.7809 19.8927C77.7809 20.2008 77.7098 20.3548 77.5676 20.3548H75.8614C75.6007 20.3548 75.4703 20.4615 75.4703 20.6748C75.4703 20.8643 76.0035 22.4995 77.0699 25.5802C78.1363 28.6609 78.8354 30.687 79.1672 31.6586C79.5937 30.1894 80.1032 28.6135 80.6957 26.9309C81.2881 25.2484 81.7265 23.9569 82.0109 23.0564C82.319 22.1559 82.473 21.4923 82.473 21.0658C82.473 20.6155 82.3308 20.3904 82.0464 20.3904H80.589C80.4232 20.3904 80.3402 20.2363 80.3402 19.9283C80.3402 19.5965 80.3995 19.4306 80.5179 19.4306L83.7882 19.5017ZM91.8973 34.9645L87.7739 35.0711C87.608 35.0711 87.5251 34.8934 87.5251 34.5379C87.5251 34.1824 87.5843 34.0047 87.7028 34.0047H89.7645C90.0489 34.0047 90.191 33.8033 90.191 33.4004V25.047C90.191 22.7483 89.8593 21.599 89.1957 21.599H88.4848C88.2952 21.599 88.2004 21.4212 88.2004 21.0658C88.2004 20.7103 88.2715 20.5326 88.4137 20.5326C89.5038 20.5326 90.6887 19.9046 91.9684 18.6486C92.4186 18.222 92.703 18.0088 92.8215 18.0088C93.1769 18.0088 93.3547 18.151 93.3547 18.4353C93.3547 18.6249 93.331 19.2647 93.2836 20.3548C93.2362 21.4212 93.2125 22.7838 93.2125 24.4427V30.8055C93.2125 32.8909 93.4613 33.9336 93.959 33.9336H95.7008C95.8903 33.9336 95.9851 34.1113 95.9851 34.4668C95.9851 34.8223 95.914 35 95.7718 35L91.8973 34.9645ZM93.1769 12.3213C93.1769 12.8427 92.9992 13.2929 92.6438 13.6721C92.2883 14.0276 91.8499 14.2053 91.3285 14.2053C90.8072 14.2053 90.3451 14.0276 89.9422 13.6721C89.5631 13.3166 89.3735 12.8782 89.3735 12.3569C89.3735 11.8118 89.5512 11.3497 89.9067 10.9706C90.2858 10.5914 90.7361 10.4018 91.2574 10.4018C91.8025 10.4018 92.2527 10.5914 92.6082 10.9706C92.9874 11.326 93.1769 11.7763 93.1769 12.3213ZM102.556 34.9645L98.4326 35.0711C98.2667 35.0711 98.1837 34.8934 98.1837 34.5379C98.1837 34.1824 98.243 34.0047 98.3615 34.0047H100.423C100.708 34.0047 100.85 33.8033 100.85 33.4004V20.8169H98.3615C98.1008 20.8169 97.9704 20.6274 97.9704 20.2482C97.9704 19.8453 98.0771 19.6439 98.2904 19.6439C99.7833 19.6439 100.613 19.3951 100.779 18.8974C100.873 18.5894 100.992 18.1391 101.134 17.5467C101.3 16.9305 101.442 16.4092 101.561 15.9826C101.679 15.5324 101.845 15.011 102.058 14.4186C102.272 13.8024 102.497 13.2692 102.734 12.819C102.994 12.3687 103.326 11.9066 103.729 11.4327C104.132 10.9587 104.57 10.5677 105.044 10.2596C106.158 9.59609 107.532 9.26432 109.168 9.26432C110.116 9.26432 110.921 9.5013 111.585 9.97525C112.272 10.4255 112.616 10.9469 112.616 11.5393C112.616 12.3687 112.023 12.973 110.838 13.3522C110.507 12.8308 110.222 12.4161 109.985 12.108C109.748 11.8 109.405 11.5038 108.954 11.2194C108.504 10.9113 108.006 10.7573 107.461 10.7573C106.94 10.7573 106.454 10.8758 106.004 11.1127C105.577 11.3497 105.234 11.7052 104.973 12.1791C104.712 12.6294 104.499 13.0796 104.333 13.5299C104.191 13.9802 104.084 14.5489 104.013 15.2361C103.919 16.1603 103.871 17.2267 103.871 18.4353V19.4662H107.888C108.149 19.4662 108.279 19.6913 108.279 20.1416C108.279 20.5918 108.172 20.8169 107.959 20.8169H103.871V30.8055C103.871 32.8909 104.12 33.9336 104.618 33.9336H106.359C106.549 33.9336 106.644 34.1113 106.644 34.4668C106.644 34.8223 106.573 35 106.431 35L102.556 34.9645ZM112.464 30.7344V20.8169H110.651C110.414 20.8169 110.295 20.6511 110.295 20.3193C110.295 19.9638 110.39 19.7742 110.58 19.7505C111.646 19.5373 112.511 19.0159 113.175 18.1865C113.838 17.3571 114.407 16.267 114.881 14.9162C114.928 14.7503 115.07 14.6674 115.307 14.6674C115.568 14.6674 115.698 14.8096 115.698 15.094C115.698 15.3546 115.663 15.9471 115.592 16.8713C115.521 17.7718 115.485 18.6368 115.485 19.4662H119.893C120.13 19.4662 120.248 19.6913 120.248 20.1416C120.248 20.5918 120.154 20.8169 119.964 20.8169H115.485V29.9524C115.485 31.1136 115.687 31.9667 116.089 32.5117C116.492 33.0568 117.168 33.3293 118.116 33.3293C118.921 33.3293 119.573 32.9857 120.071 32.2985C120.26 32.0615 120.402 31.943 120.497 31.943C120.734 31.943 120.853 32.0496 120.853 32.2629C120.853 32.9028 120.438 33.6137 119.609 34.3957C118.779 35.1777 117.736 35.5687 116.48 35.5687C115.248 35.5687 114.265 35.154 113.53 34.3246C112.819 33.4952 112.464 32.2985 112.464 30.7344ZM128.207 8.87331L128.171 22.381V30.8055C128.171 32.8909 128.42 33.9336 128.918 33.9336H130.66C130.849 33.9336 130.944 34.1113 130.944 34.4668C130.944 34.8223 130.873 35 130.731 35C130.731 35 129.439 34.9882 126.856 34.9645L122.733 35.0711C122.567 35.0711 122.484 34.8934 122.484 34.5379C122.484 34.1824 122.543 34.0047 122.662 34.0047H124.723C125.008 34.0047 125.15 33.8033 125.15 33.4004V14.2408C125.15 11.9422 124.854 10.7928 124.261 10.7928H122.662C122.472 10.7928 122.377 10.6151 122.377 10.2596C122.377 9.90416 122.448 9.72643 122.591 9.72643C123.562 9.72643 124.344 9.64349 124.937 9.4776C125.529 9.28802 125.944 9.15768 126.181 9.08659C126.418 8.9918 126.702 8.87331 127.034 8.73113C127.389 8.56524 127.603 8.47045 127.674 8.44675C128.029 8.44675 128.207 8.58894 128.207 8.87331ZM145.903 19.5017L148.498 19.4306C148.664 19.4306 148.747 19.5847 148.747 19.8927C148.747 20.2008 148.664 20.3548 148.498 20.3548H147.609C147.325 20.3548 147.1 20.5207 146.934 20.8525C145.844 22.9379 144.576 26.0067 143.13 30.059C141.685 34.1113 140.82 36.5048 140.535 37.2394C138.26 43.1165 135.606 46.055 132.573 46.055C131.483 46.055 130.748 45.7587 130.369 45.1663C130.274 44.9767 130.227 44.7042 130.227 44.3487C130.227 43.9933 130.499 43.4956 131.045 42.8558C131.732 43.3297 132.502 43.5667 133.355 43.5667C134.232 43.5667 135.156 43.0098 136.128 41.896C137.123 40.8059 137.905 39.6329 138.474 38.3769C139.043 37.1446 139.327 36.2204 139.327 35.6043C139.327 34.9882 139.208 34.2535 138.971 33.4004C138.734 32.5236 138.379 31.5046 137.905 30.3434C137.431 29.1822 137.016 28.1988 136.661 27.393C136.305 26.5636 135.808 25.4854 135.168 24.1583C134.552 22.8312 134.137 21.9544 133.924 21.5279C133.734 21.0776 133.521 20.7814 133.284 20.6392C133.047 20.4733 132.656 20.3904 132.111 20.3904C131.969 20.3904 131.898 20.2363 131.898 19.9283C131.898 19.5965 131.969 19.4306 132.111 19.4306L135.488 19.5017L139.327 19.4306C139.469 19.4306 139.54 19.5847 139.54 19.8927C139.54 20.2008 139.469 20.3548 139.327 20.3548H137.727C137.419 20.3548 137.265 20.4496 137.265 20.6392C137.265 20.8051 137.443 21.3738 137.798 22.3454C138.178 23.2933 138.711 24.6797 139.398 26.5044C140.109 28.3291 140.737 30.0472 141.282 31.6586C141.685 30.2842 142.182 28.7557 142.775 27.0731C143.391 25.3669 143.853 24.0398 144.161 23.0919C144.469 22.144 144.623 21.4568 144.623 21.0302C144.623 20.6037 144.469 20.3904 144.161 20.3904H142.491C142.372 20.3904 142.313 20.2363 142.313 19.9283C142.313 19.5965 142.372 19.4306 142.491 19.4306L145.903 19.5017Z" fill="#330BA6"/>
</svg>
