<svg width="109" height="42" viewBox="0 0 109 42" fill="none" xmlns="http://www.w3.org/2000/svg">
<path d="M20.4057 7.30711C20.4057 7.50617 20.2067 7.6057 19.8085 7.6057C19.4104 7.6057 19.2114 7.47773 19.2114 7.2218C19.2114 7.13648 19.2114 6.93742 19.2114 6.62461C19.2114 6.28337 19.1403 5.87103 18.9981 5.3876C17.9459 3.59605 16.5241 2.70028 14.7325 2.70028C13.4244 2.70028 12.23 3.12684 11.1494 3.97995C10.0688 4.83307 9.5285 5.94212 9.5285 7.30711C9.5285 8.87115 10.6233 10.6627 12.813 12.6817C13.723 13.5064 14.6188 14.388 15.5003 15.3264C16.4103 16.2364 17.1781 17.317 17.8037 18.5682C18.4578 19.8195 18.7848 21.1276 18.7848 22.4926C18.7848 25.1088 17.8748 27.1136 16.0548 28.507C14.2349 29.872 12.0168 30.5545 9.40053 30.5545C6.81274 30.5545 4.59464 29.7441 2.74622 28.1231C2.37654 28.8056 2.13482 29.3886 2.02107 29.872C1.90733 30.0427 1.70826 30.128 1.42389 30.128C1.02577 30.128 0.826711 29.9573 0.826711 29.6161C0.826711 29.3886 0.926242 29.09 1.1253 28.7203C2.00686 27.0141 2.5756 25.7771 2.83153 25.0093C3.08747 24.2415 3.22966 23.8291 3.25809 23.7723C3.28653 23.6869 3.3434 23.559 3.42872 23.3883C3.51403 23.1893 3.58512 23.0613 3.642 23.0044C3.72731 22.9476 3.82684 22.8765 3.94059 22.7912C4.13965 22.649 4.46667 22.6774 4.92167 22.8765C4.60886 23.8718 4.39558 24.6111 4.28183 25.0946C4.82214 26.0899 5.60416 26.9288 6.6279 27.6113C7.68008 28.2938 8.80335 28.635 9.99771 28.635C11.1921 28.635 12.2727 28.2369 13.2396 27.4407C14.2349 26.6444 14.7325 25.5496 14.7325 24.1562C14.7325 22.6205 13.6945 20.8148 11.6186 18.7389C10.7371 17.8573 9.86974 16.9615 9.01663 16.0515C8.16351 15.1131 7.42414 14.0467 6.79853 12.8524C6.20134 11.6296 5.90275 10.3925 5.90275 9.14131C5.90275 6.49665 6.84118 4.40651 8.71804 2.8709C10.5949 1.30686 12.7988 0.524832 15.3297 0.524832C17.0928 0.524832 18.6711 0.894517 20.0645 1.63388L20.4484 0.695456C20.5337 0.524833 20.6332 0.439522 20.747 0.439522C20.9176 0.439522 21.1735 0.595926 21.5148 0.908735C20.7754 3.12684 20.4057 5.04635 20.4057 6.66727C20.4057 6.89477 20.4057 7.10805 20.4057 7.30711ZM43.7882 14.5017L46.3831 14.4306C46.549 14.4306 46.6319 14.5847 46.6319 14.8927C46.6319 15.2008 46.549 15.3548 46.3831 15.3548H45.4589C45.1982 15.3548 45.0087 15.4615 44.8902 15.6748C44.2266 16.7648 43.1839 19.1702 41.7621 22.8907C40.3639 26.5875 39.4634 29.1232 39.0605 30.4977C38.9657 30.7109 38.7288 30.8176 38.3496 30.8176C37.9941 30.8176 37.769 30.6991 37.6742 30.4621C37.2003 28.6374 35.9798 25.3908 34.0129 20.7224C32.2119 25.2249 31.0152 28.4833 30.4227 30.4977C30.3279 30.7109 30.091 30.8176 29.7118 30.8176C29.3563 30.8176 29.1312 30.6991 29.0364 30.4621C28.4914 28.2582 26.56 23.6846 23.2423 16.7411C22.958 16.1724 22.6973 15.8051 22.4603 15.6392C22.2233 15.4733 21.856 15.3904 21.3584 15.3904C21.2162 15.3904 21.1451 15.2363 21.1451 14.9283C21.1451 14.5965 21.2162 14.4306 21.3584 14.4306L24.7353 14.5017L28.0411 14.4306C28.1833 14.4306 28.2544 14.5847 28.2544 14.8927C28.2544 15.2008 28.1833 15.3548 28.0411 15.3548H26.8681C26.6074 15.3548 26.4771 15.4615 26.4771 15.6748C26.4771 15.7932 26.714 16.4686 27.188 17.7009C28.8705 22.1087 29.9843 25.0946 30.5294 26.6586C30.8848 25.4263 31.7617 22.8078 33.1598 18.8028C32.3778 16.9544 31.8327 15.9236 31.5247 15.7103C31.2403 15.497 30.8493 15.3904 30.3516 15.3904C30.2095 15.3904 30.1384 15.2363 30.1384 14.9283C30.1384 14.5965 30.2095 14.4306 30.3516 14.4306L33.7286 14.5017L37.5676 14.4306C37.7098 14.4306 37.7809 14.5847 37.7809 14.8927C37.7809 15.2008 37.7098 15.3548 37.5676 15.3548H35.8614C35.6007 15.3548 35.4703 15.4615 35.4703 15.6748C35.4703 15.8643 36.0035 17.4995 37.0699 20.5802C38.1363 23.6609 38.8354 25.687 39.1672 26.6586C39.5937 25.1894 40.1032 23.6135 40.6957 21.9309C41.2881 20.2484 41.7265 18.9569 42.0109 18.0564C42.319 17.1559 42.473 16.4923 42.473 16.0658C42.473 15.6155 42.3308 15.3904 42.0464 15.3904H40.589C40.4232 15.3904 40.3402 15.2363 40.3402 14.9283C40.3402 14.5965 40.3995 14.4306 40.5179 14.4306L43.7882 14.5017ZM51.8973 29.9645L47.7739 30.0711C47.608 30.0711 47.5251 29.8934 47.5251 29.5379C47.5251 29.1824 47.5843 29.0047 47.7028 29.0047H49.7645C50.0489 29.0047 50.191 28.8033 50.191 28.4004V20.047C50.191 17.7483 49.8593 16.599 49.1957 16.599H48.4848C48.2952 16.599 48.2004 16.4212 48.2004 16.0658C48.2004 15.7103 48.2715 15.5326 48.4137 15.5326C49.5038 15.5326 50.6887 14.9046 51.9684 13.6486C52.4186 13.222 52.703 13.0088 52.8215 13.0088C53.1769 13.0088 53.3547 13.151 53.3547 13.4353C53.3547 13.6249 53.331 14.2647 53.2836 15.3548C53.2362 16.4212 53.2125 17.7838 53.2125 19.4427V25.8055C53.2125 27.8909 53.4613 28.9336 53.959 28.9336H55.7008C55.8903 28.9336 55.9851 29.1113 55.9851 29.4668C55.9851 29.8223 55.914 30 55.7718 30L51.8973 29.9645ZM53.1769 7.32132C53.1769 7.84267 52.9992 8.29293 52.6438 8.67209C52.2883 9.02756 51.8499 9.20529 51.3285 9.20529C50.8072 9.20529 50.3451 9.02756 49.9422 8.67209C49.5631 8.31663 49.3735 7.87822 49.3735 7.35687C49.3735 6.81182 49.5512 6.34972 49.9067 5.97056C50.2858 5.59139 50.7361 5.40181 51.2574 5.40181C51.8025 5.40181 52.2527 5.59139 52.6082 5.97056C52.9874 6.32602 53.1769 6.77628 53.1769 7.32132ZM62.5559 29.9645L58.4326 30.0711C58.2667 30.0711 58.1837 29.8934 58.1837 29.5379C58.1837 29.1824 58.243 29.0047 58.3615 29.0047H60.4232C60.7075 29.0047 60.8497 28.8033 60.8497 28.4004V15.8169H58.3615C58.1008 15.8169 57.9704 15.6274 57.9704 15.2482C57.9704 14.8453 58.0771 14.6439 58.2904 14.6439C59.7833 14.6439 60.6127 14.3951 60.7786 13.8974C60.8734 13.5894 60.9919 13.1391 61.1341 12.5467C61.3 11.9305 61.4422 11.4092 61.5606 10.9826C61.6791 10.5324 61.845 10.011 62.0583 9.41857C62.2716 8.80243 62.4967 8.26923 62.7337 7.81898C62.9944 7.36872 63.3261 6.90661 63.729 6.43266C64.1318 5.95871 64.5703 5.5677 65.0442 5.25963C66.158 4.59609 67.5325 4.26432 69.1676 4.26432C70.1155 4.26432 70.9212 4.5013 71.5848 4.97525C72.272 5.42551 72.6156 5.94686 72.6156 6.5393C72.6156 7.36872 72.0232 7.97301 70.8383 8.35217C70.5065 7.83082 70.2221 7.41611 69.9852 7.10804C69.7482 6.79998 69.4046 6.50375 68.9543 6.21938C68.5041 5.91131 68.0064 5.75728 67.4614 5.75728C66.94 5.75728 66.4542 5.87577 66.004 6.11274C65.5774 6.34972 65.2338 6.70518 64.9731 7.17914C64.7124 7.62939 64.4992 8.07965 64.3333 8.52991C64.1911 8.98016 64.0844 9.5489 64.0134 10.2361C63.9186 11.1603 63.8712 12.2267 63.8712 13.4353V14.4662H67.8879C68.1486 14.4662 68.2789 14.6913 68.2789 15.1416C68.2789 15.5918 68.1723 15.8169 67.959 15.8169H63.8712V25.8055C63.8712 27.8909 64.12 28.9336 64.6176 28.9336H66.3594C66.549 28.9336 66.6438 29.1113 66.6438 29.4668C66.6438 29.8223 66.5727 30 66.4305 30L62.5559 29.9645ZM72.4637 25.7344V15.8169H70.6508C70.4139 15.8169 70.2954 15.6511 70.2954 15.3193C70.2954 14.9638 70.3902 14.7742 70.5797 14.7505C71.6461 14.5373 72.5111 14.0159 73.1746 13.1865C73.8382 12.3571 74.4069 11.267 74.8809 9.91622C74.9283 9.75034 75.0704 9.66739 75.3074 9.66739C75.5681 9.66739 75.6984 9.80958 75.6984 10.094C75.6984 10.3546 75.6629 10.9471 75.5918 11.8713C75.5207 12.7718 75.4852 13.6368 75.4852 14.4662H79.8929C80.1299 14.4662 80.2484 14.6913 80.2484 15.1416C80.2484 15.5918 80.1536 15.8169 79.964 15.8169H75.4852V24.9524C75.4852 26.1136 75.6866 26.9667 76.0894 27.5117C76.4923 28.0568 77.1677 28.3293 78.1156 28.3293C78.9213 28.3293 79.573 27.9857 80.0707 27.2985C80.2602 27.0615 80.4024 26.943 80.4972 26.943C80.7342 26.943 80.8527 27.0496 80.8527 27.2629C80.8527 27.9028 80.438 28.6137 79.6086 29.3957C78.7791 30.1777 77.7364 30.5687 76.4805 30.5687C75.2482 30.5687 74.2647 30.154 73.5301 29.3246C72.8192 28.4952 72.4637 27.2985 72.4637 25.7344ZM88.2069 3.87331L88.1714 17.381V25.8055C88.1714 27.8909 88.4202 28.9336 88.9179 28.9336H90.6596C90.8492 28.9336 90.944 29.1113 90.944 29.4668C90.944 29.8223 90.8729 30 90.7307 30C90.7307 30 89.4392 29.9882 86.8562 29.9645L82.7328 30.0711C82.5669 30.0711 82.4839 29.8934 82.4839 29.5379C82.4839 29.1824 82.5432 29.0047 82.6617 29.0047H84.7234C85.0077 29.0047 85.1499 28.8033 85.1499 28.4004V9.24083C85.1499 6.94216 84.8537 5.79282 84.2613 5.79282H82.6617C82.4721 5.79282 82.3773 5.61509 82.3773 5.25963C82.3773 4.90416 82.4484 4.72643 82.5906 4.72643C83.5622 4.72643 84.3442 4.64349 84.9366 4.4776C85.5291 4.28802 85.9438 4.15768 86.1808 4.08659C86.4177 3.9918 86.7021 3.87331 87.0339 3.73113C87.3894 3.56524 87.6026 3.47045 87.6737 3.44675C88.0292 3.44675 88.2069 3.58894 88.2069 3.87331ZM105.903 14.5017L108.498 14.4306C108.664 14.4306 108.747 14.5847 108.747 14.8927C108.747 15.2008 108.664 15.3548 108.498 15.3548H107.609C107.325 15.3548 107.1 15.5207 106.934 15.8525C105.844 17.9379 104.576 21.0067 103.13 25.059C101.685 29.1113 100.82 31.5048 100.535 32.2394C98.2605 38.1165 95.6063 41.055 92.573 41.055C91.4829 41.055 90.7483 40.7587 90.3692 40.1663C90.2744 39.9767 90.227 39.7042 90.227 39.3487C90.227 38.9933 90.4995 38.4956 91.0445 37.8558C91.7318 38.3297 92.5019 38.5667 93.3551 38.5667C94.2319 38.5667 95.1561 38.0098 96.1277 36.896C97.123 35.8059 97.905 34.6329 98.4738 33.3769C99.0425 32.1446 99.3269 31.2204 99.3269 30.6043C99.3269 29.9882 99.2084 29.2535 98.9714 28.4004C98.7344 27.5236 98.379 26.5046 97.905 25.3434C97.4311 24.1822 97.0163 23.1988 96.6609 22.393C96.3054 21.5636 95.8078 20.4854 95.1679 19.1583C94.5518 17.8312 94.1371 16.9544 93.9238 16.5279C93.7342 16.0776 93.5209 15.7814 93.284 15.6392C93.047 15.4733 92.656 15.3904 92.1109 15.3904C91.9687 15.3904 91.8977 15.2363 91.8977 14.9283C91.8977 14.5965 91.9687 14.4306 92.1109 14.4306L95.4878 14.5017L99.3269 14.4306C99.4691 14.4306 99.5402 14.5847 99.5402 14.8927C99.5402 15.2008 99.4691 15.3548 99.3269 15.3548H97.7273C97.4192 15.3548 97.2652 15.4496 97.2652 15.6392C97.2652 15.8051 97.4429 16.3738 97.7984 17.3454C98.1775 18.2933 98.7107 19.6797 99.398 21.5044C100.109 23.3291 100.737 25.0472 101.282 26.6586C101.685 25.2842 102.182 23.7557 102.775 22.0731C103.391 20.3669 103.853 19.0398 104.161 18.0919C104.469 17.144 104.623 16.4568 104.623 16.0302C104.623 15.6037 104.469 15.3904 104.161 15.3904H102.491C102.372 15.3904 102.313 15.2363 102.313 14.9283C102.313 14.5965 102.372 14.4306 102.491 14.4306L105.903 14.5017Z" fill="#330BA6"/>
</svg>
