<svg width="15" height="15" viewBox="0 0 15 15" fill="none" xmlns="http://www.w3.org/2000/svg">
<path fill-rule="evenodd" clip-rule="evenodd" d="M7.5 0C7.72101 0 7.93297 0.0877973 8.08926 0.244078C8.24554 0.400358 8.33333 0.61232 8.33333 0.833333V1.725C9.57996 1.90519 10.7349 2.48383 11.6255 3.37449C12.5162 4.26515 13.0948 5.42004 13.275 6.66667H14.1667C14.3877 6.66667 14.5996 6.75446 14.7559 6.91074C14.9122 7.06702 15 7.27899 15 7.5C15 7.72101 14.9122 7.93297 14.7559 8.08926C14.5996 8.24554 14.3877 8.33333 14.1667 8.33333H13.275C13.0948 9.57996 12.5162 10.7349 11.6255 11.6255C10.7349 12.5162 9.57996 13.0948 8.33333 13.275V14.1667C8.33333 14.3877 8.24554 14.5996 8.08926 14.7559C7.93297 14.9122 7.72101 15 7.5 15C7.27899 15 7.06702 14.9122 6.91074 14.7559C6.75446 14.5996 6.66667 14.3877 6.66667 14.1667V13.275C5.42004 13.0948 4.26515 12.5162 3.37449 11.6255C2.48383 10.7349 1.90519 9.57996 1.725 8.33333H0.833333C0.61232 8.33333 0.400358 8.24554 0.244078 8.08926C0.0877973 7.93297 0 7.72101 0 7.5C0 7.27899 0.0877973 7.06702 0.244078 6.91074C0.400358 6.75446 0.61232 6.66667 0.833333 6.66667H1.725C1.90532 5.42009 2.484 4.26527 3.37463 3.37463C4.26527 2.484 5.42009 1.90532 6.66667 1.725V0.833333C6.66667 0.61232 6.75446 0.400358 6.91074 0.244078C7.06702 0.0877973 7.27899 0 7.5 0ZM3.33333 7.5C3.33333 6.39493 3.77232 5.33512 4.55372 4.55372C5.33512 3.77232 6.39493 3.33333 7.5 3.33333C8.60507 3.33333 9.66488 3.77232 10.4463 4.55372C11.2277 5.33512 11.6667 6.39493 11.6667 7.5C11.6667 8.60507 11.2277 9.66488 10.4463 10.4463C9.66488 11.2277 8.60507 11.6667 7.5 11.6667C6.39493 11.6667 5.33512 11.2277 4.55372 10.4463C3.77232 9.66488 3.33333 8.60507 3.33333 7.5Z" fill="#1F1F1F" fill-opacity="0.4"/>
</svg>
