<svg width="374" height="423" viewBox="0 0 374 423" fill="none" xmlns="http://www.w3.org/2000/svg">
<rect x="33.6797" y="247.463" width="113" height="167" rx="9.5" transform="rotate(-29 33.6797 247.463)" fill="white" stroke="#330BA6"/>
<rect x="241.654" y="220.864" width="113" height="167" rx="9.5" transform="rotate(29 241.654 220.864)" fill="white" stroke="#330BA6"/>
<path d="M37.3267 141.955L37.9147 131.958" stroke="#330BA6" stroke-width="3.15213"/>
<path d="M40.2664 121.961L42.0305 116.669L43.7946 112.553" stroke="#330BA6" stroke-width="3.15213"/>
<path d="M48.499 104.32L50.8512 99.6154L53.7914 96.0872" stroke="#330BA6" stroke-width="3.15213"/>
<path d="M59.6721 89.031L62.6124 85.5028L66.1406 81.9745" stroke="#330BA6" stroke-width="3.15213"/>
<path d="M74.3735 76.6819L78.4899 73.7416L82.6062 72.5656" stroke="#330BA6" stroke-width="3.15213"/>
<path d="M91.4272 67.8611L96.1316 66.0969H100.836" stroke="#330BA6" stroke-width="3.15213"/>
<path d="M109.656 64.3329H119.653" stroke="#330BA6" stroke-width="3.15213"/>
<path d="M122.005 65.5092V74.3299" stroke="#330BA6" stroke-width="3.15213"/>
<path d="M119.653 83.1505V93.1473" stroke="#330BA6" stroke-width="3.15213"/>
<path d="M119.065 102.556V111.965" stroke="#330BA6" stroke-width="3.15213"/>
<path d="M121.417 121.374C121.417 121.374 120.764 125.052 121.417 127.254C121.943 129.029 123.769 131.371 123.769 131.371" stroke="#330BA6" stroke-width="3.15213"/>
<path d="M128.474 139.603C128.474 139.603 128.938 142.837 130.238 144.307C131.598 145.846 134.942 146.66 134.942 146.66" stroke="#330BA6" stroke-width="3.15213"/>
<path d="M142.587 153.128C142.587 153.128 144.767 155.676 146.703 156.068C148.295 156.391 150.82 155.48 150.82 155.48" stroke="#330BA6" stroke-width="3.15213"/>
<path d="M160.816 154.892C160.816 154.892 165.438 155.499 167.285 153.716C168.393 152.646 169.049 150.188 169.049 150.188" stroke="#330BA6" stroke-width="3.15213"/>
<path d="M176.105 144.307C176.105 144.307 178.738 142.921 179.634 141.367C180.672 139.565 180.222 136.074 180.222 136.074" stroke="#330BA6" stroke-width="3.15213"/>
<path d="M182.574 126.078V117.257" stroke="#330BA6" stroke-width="3.15213"/>
<path d="M179.634 107.26C179.634 107.26 179.272 103.636 177.87 101.968C176.804 100.7 174.342 99.6158 174.342 99.6158" stroke="#330BA6" stroke-width="3.15213"/>
<path d="M169.638 90.2066C169.638 90.2066 167.734 87.7539 166.109 86.6783C164.651 85.7129 161.993 84.9142 161.993 84.9142" stroke="#330BA6" stroke-width="3.15213"/>
<path d="M154.936 78.446C154.936 78.446 152.258 75.9982 150.231 74.9177C148.5 73.9945 145.527 73.1536 145.527 73.1536" stroke="#330BA6" stroke-width="3.15213"/>
<path d="M138.471 70.2135C138.471 70.2135 135.861 67.6273 133.766 66.6852C131.63 65.7246 127.886 65.5092 127.886 65.5092" stroke="#330BA6" stroke-width="3.15213"/>
<path d="M126.71 54.9241C126.71 54.9241 125.62 51.3878 126.71 49.6317C127.793 47.8865 131.414 47.2795 131.414 47.2795" stroke="#330BA6" stroke-width="3.15213"/>
<path d="M136.707 39.0469C136.707 39.0469 137.069 35.4222 138.471 33.7545C139.536 32.4869 141.999 31.4023 141.999 31.4023" stroke="#330BA6" stroke-width="3.15213"/>
<path d="M149.643 24.346C149.643 24.346 150.557 21.6393 151.995 20.8177C153.59 19.9062 156.699 20.8177 156.699 20.8177" stroke="#330BA6" stroke-width="3.15213"/>
<path d="M166.109 14.9371C166.109 14.9371 167.953 12.6148 169.637 11.9969C171.362 11.364 174.342 11.9969 174.342 11.9969" stroke="#330BA6" stroke-width="3.15213"/>
<path d="M183.162 7.88044C183.162 7.88044 185.033 5.62518 186.691 4.9402C188.813 4.06318 192.571 4.9402 192.571 4.9402" stroke="#330BA6" stroke-width="3.15213"/>
<path d="M201.98 2.58801H206.096H210.8" stroke="#330BA6" stroke-width="3.15213"/>
<path d="M220.209 2H224.913H230.206" stroke="#330BA6" stroke-width="3.15213"/>
<path d="M239.614 3.17603H244.907H249.023" stroke="#330BA6" stroke-width="3.15213"/>
<path d="M258.432 6.11619C258.432 6.11619 261.707 5.66607 263.724 6.11619C265.431 6.49708 267.84 7.88033 267.84 7.88033" stroke="#330BA6" stroke-width="3.15213"/>
<path d="M277.838 11.4087C277.838 11.4087 281.722 11.8451 283.718 13.1728C285.07 14.0721 286.659 16.1131 286.659 16.1131" stroke="#330BA6" stroke-width="3.15213"/>
<path d="M295.479 19.6415C295.479 19.6415 298.099 19.0518 299.595 19.6415C301.731 20.484 303.123 24.3459 303.123 24.3459" stroke="#330BA6" stroke-width="3.15213"/>
<path d="M311.356 29.6383C311.356 29.6383 314.56 30.5878 316.061 31.9905C317.27 33.1213 318.413 35.5188 318.413 35.5188" stroke="#330BA6" stroke-width="3.15213"/>
<path d="M326.058 43.1632L328.41 46.6915L330.174 49.6317" stroke="#330BA6" stroke-width="3.15213"/>
<path d="M336.643 57.8643C336.643 57.8643 338.549 60.5635 338.995 62.5686C339.393 64.3621 338.995 67.273 338.995 67.273" stroke="#330BA6" stroke-width="3.15213"/>
<path d="M342.522 76.6815C342.522 76.6815 343.954 79.5095 343.699 81.3859C343.531 82.6112 342.522 84.3261 342.522 84.3261" stroke="#330BA6" stroke-width="3.15213"/>
<path d="M341.346 94.9115C341.346 94.9115 341.725 97.8181 341.346 99.6159C340.986 101.327 339.582 103.732 339.582 103.732" stroke="#330BA6" stroke-width="3.15213"/>
<path d="M328.41 106.084L333.114 110.2L343.699 111.964L342.523 113.729H334.879L337.819 115.493L346.051 121.961L342.523 124.313L314.885 141.955L309.593 144.307L311.357 139.603L326.646 103.732L328.41 106.084Z" fill="white"/>
<path d="M309.593 144.307L311.357 139.603L326.646 103.732L328.41 106.084L333.114 110.2L343.699 111.964L342.523 113.729H334.879L337.819 115.493L346.051 121.961L342.523 124.313L314.885 141.955L309.593 144.307ZM309.593 144.307L333.114 113.729" stroke="#330BA6" stroke-width="3.15213"/>
<path d="M283.321 152.823L340.13 152.151L342.147 152.823L344.836 155.848L345.844 200.556C345.844 200.556 347.662 200.858 348.533 201.564C349.766 202.562 350.214 205.262 350.214 205.262V209.632L351.559 215.01C351.559 215.01 352.474 218.934 353.239 221.397C356.413 231.602 361.922 235.726 366.013 245.599C366.554 246.905 366.873 247.632 367.358 248.961C372.486 263.022 367.642 272.319 368.03 287.281C368.425 302.513 378.213 313.863 369.374 326.274C364.912 332.54 360.162 334.065 353.576 338.039C345.324 343.018 340.386 345.721 331.054 348.124C328.585 348.759 327.212 349.333 324.667 349.468C308.15 350.345 324.667 307.114 324.667 307.114C324.667 307.114 325.272 305.714 325.339 304.761C325.66 300.246 314.247 301.399 314.247 301.399L302.818 292.66L296.767 285.937L295.758 281.903H283.993L281.136 284.592L273.237 275.852L271.556 270.81L273.237 267.785L276.262 264.087L279.96 262.575C279.96 262.575 280.194 261.01 279.96 260.054C279.359 257.604 274.917 256.02 274.917 256.02L269.875 249.297L269.203 245.263L269.875 240.893L271.556 237.868L277.607 233.498L278.578 233.775C277.83 233.221 277.098 232.417 276.262 231.817C273.995 230.189 273.188 228.703 271.556 226.439C270.555 225.05 269.203 222.741 269.203 222.741L268.531 217.027L271.556 211.985L274.917 208.959H278.279V193.497C278.279 193.497 273.9 192.642 271.556 191.144C269.366 189.744 268.15 188.688 266.85 186.438C265.749 184.532 264.482 183.15 265.169 181.059C265.522 179.986 266.85 178.706 266.85 178.706L269.203 177.025H273.237H278.279V167.277V156.857L278.951 155.176L283.321 152.823Z" fill="#330BA6"/>
<path d="M283.993 281.903C288.588 281.903 295.758 281.903 295.758 281.903L296.767 285.937L302.818 292.66L314.247 301.399C314.247 301.399 325.66 300.246 325.339 304.761C325.272 305.714 324.667 307.114 324.667 307.114C324.667 307.114 308.15 350.345 324.667 349.468C327.212 349.333 328.585 348.759 331.054 348.124C340.386 345.721 345.324 343.018 353.576 338.039C360.162 334.065 364.912 332.54 369.374 326.274C378.213 313.863 368.425 302.513 368.03 287.281C367.642 272.319 372.486 263.022 367.358 248.961C366.873 247.632 366.554 246.905 366.013 245.599C361.922 235.726 356.413 231.602 353.239 221.397C352.474 218.934 351.559 215.01 351.559 215.01L350.214 209.632V205.262C350.214 205.262 349.766 202.562 348.533 201.564C347.662 200.858 345.844 200.556 345.844 200.556L344.836 155.848L342.147 152.823L340.13 152.151L283.321 152.823L278.951 155.176L278.279 156.857V167.277V177.025C278.279 177.025 275.206 177.025 273.237 177.025C271.661 177.025 269.203 177.025 269.203 177.025L266.85 178.706C266.85 178.706 265.522 179.986 265.169 181.059C264.482 183.15 265.749 184.532 266.85 186.438C268.15 188.688 269.366 189.744 271.556 191.144C273.9 192.642 278.279 193.497 278.279 193.497C278.279 193.497 278.279 202.921 278.279 208.959M283.993 281.903L281.136 284.592L273.237 275.852L271.556 270.81L273.237 267.785L276.262 264.087L279.96 262.575M283.993 281.903C283.993 281.64 283.993 281.231 283.993 281.231M285.002 277.197C285.002 277.197 284.153 278.563 283.993 279.55C283.889 280.198 283.993 281.231 283.993 281.231M285.002 277.197C285.002 277.197 285.409 274.283 285.002 272.491C284.753 271.397 283.993 269.802 283.993 269.802L279.96 266.44V265.096V262.575M285.002 277.197H335.76M282.649 267.785V260.054C282.649 260.054 284.884 257.167 285.674 255.011C287.119 251.067 287.485 248.045 285.674 244.255C284.984 242.809 283.321 240.893 283.321 240.893L281.136 239.717M281.136 239.717L278.951 238.54L279.96 237.868V234.17L277.607 233.498L271.556 237.868L269.875 240.893L269.203 245.263L269.875 249.297L274.917 256.02C274.917 256.02 279.359 257.604 279.96 260.054C280.194 261.01 279.96 262.575 279.96 262.575M281.136 239.717L282.649 238.54L282.313 233.162M282.313 233.162C282.313 233.162 281.674 233.892 281.136 234.17C279.259 235.142 277.979 233.05 276.262 231.817C273.995 230.189 273.188 228.703 271.556 226.439C270.555 225.05 269.203 222.741 269.203 222.741L268.531 217.027L271.556 211.985L274.917 208.959C274.917 208.959 276.966 208.959 278.279 208.959M282.313 233.162L284.33 230.137L285.674 228.792C287.931 225.891 285.674 219.38 285.674 219.38C285.674 219.38 283.83 217.536 282.649 216.355C282.518 216.223 282.313 216.018 282.313 216.018M278.279 208.959C278.541 209.222 278.951 209.632 278.951 209.632L278.279 211.985L279.96 213.665L282.313 216.018M282.313 216.018L281.64 212.993V196.186V160.89V155.848L284.666 155.176H340.13L342.147 156.857L343.155 200.556C343.155 200.556 343.179 201.171 343.155 201.564C342.925 205.288 338.413 205.465 337.104 208.959C335.677 212.77 336.77 215.324 337.104 219.38C337.589 225.255 338.558 228.488 340.13 234.17C341.049 237.491 344.148 239.395 342.819 242.574L341.81 244.255C341.81 244.255 338.309 251.85 337.104 257.028C336.263 260.645 336.039 262.738 335.76 266.44C335.444 270.629 335.76 277.197 335.76 277.197M335.76 277.197V280.558M326.012 304.761C326.012 304.761 330.388 302.857 333.071 301.399C335.92 299.852 336.897 297.272 340.13 297.03C340.653 296.99 341.474 297.03 341.474 297.03V290.307L335.76 280.558M335.76 280.558L283.993 281.231M349.542 292.66C349.542 292.66 344.098 290.487 341.474 287.954C338.802 285.373 338.401 283.037 336.432 279.886M299.456 214.338V213.329H301.473L307.86 222.741H308.196L312.566 217.027L324.667 202.236L326.348 201.9V203.917L313.238 220.388L308.868 226.103L308.196 227.111L299.456 214.338Z" stroke="white" stroke-width="0.672292"/>
<path d="M6.19524 162.735V157.543L8.79158 154.297L63.6393 144.885H66.8848L70.1302 149.429L72.7265 165.656L75.3229 179.936L98.69 175.392L109.075 222.776L92.5237 226.203V233.81V236.406L89.6028 240.626C88.349 242.41 86.3573 245.169 86.3573 245.169L86.6819 249.388L87.0064 249.064H89.9273C91.0304 249.325 92.5237 250.362 92.5237 250.362C92.5237 250.362 94.1735 251.978 94.7955 253.283C95.7291 255.241 95.8214 256.663 95.4445 258.8C95.1583 260.423 94.564 261.223 93.8218 262.694C92.5868 265.142 89.9273 268.536 89.9273 268.536C89.9273 268.536 88.9297 268.64 88.3046 268.536C87.1864 268.35 85.7083 267.238 85.7083 267.238L74.3493 269.51C74.3493 269.51 74.4235 271.095 74.3493 272.106C73.8958 278.284 70.4698 281.215 66.2357 285.737C61.9347 290.33 52.9294 294.824 52.9294 294.824L51.3067 296.609C51.3067 296.609 50.2877 297.671 49.684 298.394C40.5054 309.388 62.8294 329.383 49.684 335.068C40.7666 338.924 34.748 332.032 25.6678 328.577C17.7739 325.573 11.21 325.961 6.19524 319.165C-0.742532 309.762 10.2328 300.803 8.1425 289.307C7.58162 286.222 6.90621 284.572 6.19524 281.518C4.52688 274.352 3.79997 270.282 2.62527 263.019C1.90984 258.595 0.943855 256.141 1.00255 251.66C1.05632 247.555 2.62527 241.275 2.62527 241.275C2.62527 241.275 3.72468 236.504 4.57252 233.486C5.98143 228.469 8.34662 226.02 8.79158 220.828C8.95394 218.934 8.79158 215.96 8.79158 215.96V210.118C8.79158 210.118 8.35234 207.487 8.79158 205.899C9.44062 203.553 12.6861 201.031 12.6861 201.031L6.19524 162.735Z" fill="#330BA6"/>
<path d="M75.3229 179.936L72.7265 165.656L70.1302 149.429L66.8848 144.885H63.6393L8.79158 154.297L6.19524 157.543V162.735L12.6861 201.031M75.3229 179.936L98.69 175.392L109.075 222.776C109.075 222.776 98.9875 224.864 92.5237 226.203M75.3229 179.936L24.0451 190.646L23.396 193.242L32.4832 238.029H35.4041C35.4041 238.029 62.305 232.459 79.5419 228.891M12.6861 201.031C12.6861 201.031 15.5626 200.424 17.2297 201.031C19.5933 201.893 19.9824 203.855 21.4488 205.899L24.0451 210.118V238.029L23.396 241.275L27.9396 246.792L32.4832 257.177L35.4041 269.51V271.133M12.6861 201.031C12.6861 201.031 9.44062 203.553 8.79158 205.899C8.35234 207.487 8.79158 210.118 8.79158 210.118V215.96C8.79158 215.96 8.95394 218.934 8.79158 220.828C8.34662 226.02 5.98143 228.469 4.57252 233.486C3.72468 236.504 2.62527 241.275 2.62527 241.275C2.62527 241.275 1.05632 247.555 1.00255 251.66C0.943855 256.141 1.90984 258.595 2.62527 263.019C3.79997 270.282 4.52688 274.352 6.19524 281.518C6.90621 284.572 7.58162 286.222 8.1425 289.307C10.2328 300.804 -0.742532 309.762 6.19524 319.165C11.21 325.961 17.7739 325.573 25.6678 328.577C34.748 332.032 40.7666 338.924 49.684 335.068C62.8294 329.383 40.5054 309.388 49.684 298.394C50.2877 297.671 51.3067 296.609 51.3067 296.609M25.6678 289.307L30.8605 285.737C30.8605 285.737 35.0081 281.233 35.4041 277.623C35.5147 276.616 35.4041 275.027 35.4041 275.027M74.3492 269.51C74.3492 269.51 74.4235 271.095 74.3492 272.106C73.8958 278.284 70.4698 281.215 66.2357 285.737C61.9347 290.33 52.9294 294.824 52.9294 294.824L51.3067 296.609M74.3492 269.51L64.613 271.133L40.2722 275.027H35.4041M74.3492 269.51L85.7083 267.238M35.4041 275.027V271.133M85.7083 267.238L84.4101 263.668L35.4041 271.133M85.7083 267.238C85.7083 267.238 87.1864 268.35 88.3046 268.536C88.9297 268.64 89.9273 268.536 89.9273 268.536C89.9273 268.536 92.5868 265.142 93.8218 262.694C94.564 261.223 95.1583 260.423 95.4445 258.8C95.8214 256.663 95.7291 255.241 94.7955 253.283C94.1735 251.978 92.5237 250.362 92.5237 250.362C92.5237 250.362 91.0304 249.325 89.9273 249.064H87.0064L86.3573 249.713L87.0064 251.66L85.7083 253.283L83.761 256.204M83.761 256.204V263.668M83.761 256.204C83.761 252.401 83.761 245.169 83.761 245.169M86.6819 249.388L86.3573 245.169C86.3573 245.169 88.349 242.41 89.6028 240.626L92.5237 236.406C92.5237 236.406 92.5237 234.824 92.5237 233.81C92.5237 230.839 92.5237 229.174 92.5237 226.203M92.5237 226.203C87.454 227.252 84.6116 227.841 79.5419 228.891M85.7083 245.169H83.761M83.761 245.169C83.761 245.169 82.2909 244.504 81.4892 243.871C79.9168 242.629 78.5683 239.652 78.5683 239.652C78.5683 239.652 77.5108 237.75 77.2701 236.406C77.2701 236.406 78.6547 231.826 79.5419 228.891M34.1059 276.001C34.1059 276.001 27.7808 287.316 32.4832 290.605C33.5061 291.321 35.4041 291.903 35.4041 291.903H37.0268C37.3435 292.299 36.9206 292.706 37.0268 293.201C37.5078 295.446 42.8686 293.851 42.8686 293.851C46.2716 294.513 51.3067 296.609 51.3067 296.609M13.6597 278.597C14.5282 279.738 15.1151 280.325 16.2561 281.193C17.8346 282.395 20.7997 283.465 20.7997 283.465" stroke="white" stroke-width="0.649086"/>
<path d="M11.7112 278.272L13.6584 281.518L17.553 283.79" stroke="white" stroke-width="0.649086"/>
<path d="M29.2363 200.706L28.2627 194.216L39.2972 192.268L40.2708 199.084L29.2363 200.706Z" fill="#330BA6"/>
<path d="M83.435 183.506V181.234L95.4431 178.637V181.234L83.435 183.506Z" fill="#330BA6"/>
<path d="M74.3478 189.023V186.426L96.0921 182.532V184.804L74.3478 189.023Z" fill="#330BA6"/>
<path d="M34.429 222.126V218.556L35.7272 217.907L37.3499 218.556V222.126L35.7272 222.775L34.429 222.126Z" fill="#330BA6"/>
<path d="M37.999 221.477V217.907L39.2972 216.934L40.2708 217.907V221.477L39.2972 222.126L37.999 221.477Z" fill="#330BA6"/>
<path d="M36.0517 229.591V226.021L48.0598 223.749V227.643L36.0517 229.591Z" fill="#330BA6"/>
<path d="M36.7008 234.783V231.213L90.2504 219.53V223.749L36.7008 234.783Z" fill="#330BA6"/>
<path d="M95.1185 222.126V218.881L97.0658 218.232L98.364 218.881V221.802L97.0658 222.775L95.1185 222.126Z" fill="#330BA6"/>
<path d="M99.6621 221.477V218.232L101.285 217.258L103.232 218.232V221.477L101.285 222.126L99.6621 221.477Z" fill="#330BA6"/>
<path d="M29.2363 200.706L28.2627 194.216L39.2972 192.268L40.2708 199.084L29.2363 200.706Z" stroke="white" stroke-width="0.649086"/>
<path d="M83.435 183.506V181.234L95.4431 178.637V181.234L83.435 183.506Z" stroke="white" stroke-width="0.649086"/>
<path d="M74.3478 189.023V186.426L96.0921 182.532V184.804L74.3478 189.023Z" stroke="white" stroke-width="0.649086"/>
<path d="M34.429 222.126V218.556L35.7272 217.907L37.3499 218.556V222.126L35.7272 222.775L34.429 222.126Z" stroke="white" stroke-width="0.649086"/>
<path d="M37.999 221.477V217.907L39.2972 216.934L40.2708 217.907V221.477L39.2972 222.126L37.999 221.477Z" stroke="white" stroke-width="0.649086"/>
<path d="M36.0517 229.591V226.021L48.0598 223.749V227.643L36.0517 229.591Z" stroke="white" stroke-width="0.649086"/>
<path d="M36.7008 234.783V231.213L90.2504 219.53V223.749L36.7008 234.783Z" stroke="white" stroke-width="0.649086"/>
<path d="M95.1185 222.126V218.881L97.0658 218.232L98.364 218.881V221.802L97.0658 222.775L95.1185 222.126Z" stroke="white" stroke-width="0.649086"/>
<path d="M99.6621 221.477V218.232L101.285 217.258L103.232 218.232V221.477L101.285 222.126L99.6621 221.477Z" stroke="white" stroke-width="0.649086"/>
<path d="M72.7247 180.26L67.2074 149.753L65.9093 147.806H62.3393L9.76334 157.218L9.11426 159.165V162.086L15.9297 201.356" stroke="white" stroke-width="0.649086"/>
<path d="M42.2185 220.828V219.53H41.2449V221.802H44.4903V220.828H42.2185Z" fill="#330BA6"/>
<path d="M45.1394 217.583V216.285H47.7357V220.828H46.4376V217.583H45.1394Z" fill="#330BA6"/>
<path d="M51.6302 218.556V214.986L52.9284 214.013L54.5511 214.986V218.556L52.9284 219.53L51.6302 218.556Z" fill="#330BA6"/>
<path d="M58.4456 214.013H55.5248V214.85H57.472V215.96H56.4984V216.609H57.1475V217.583H55.5248V218.881L58.4456 218.556V214.013Z" fill="#330BA6"/>
<path d="M58.9922 213.039V214.013H59.4193H61.042V215.635H60.0684V216.285H61.042V217.583H59.4193V218.556H62.3402V213.039H58.9922Z" fill="#330BA6"/>
<path d="M64.2874 214.013H62.9892V213.364V213.039V212.39H65.5856V217.583H64.2874V214.013Z" fill="#330BA6"/>
<path d="M69.1556 214.013L70.1292 210.767H72.0764V214.013H71.4274V214.986H69.1556V214.013Z" fill="#330BA6"/>
<path d="M75.6464 210.767H73.0501V211.741H74.3482V212.39H73.6992V213.364H74.3482V214.013H73.0501V215.635H75.6464V210.767Z" fill="#330BA6"/>
<path d="M77.9182 210.767H76.62V209.794H79.5409V211.741L78.2428 212.065L78.8918 213.039H79.8655V214.986H76.62V212.39H77.9182V210.767Z" fill="#330BA6"/>
<path d="M81.4882 210.443H80.5146V208.82H82.4618V213.364H81.4882V210.443Z" fill="#330BA6"/>
<path d="M86.6809 208.635V207.846H89.4395L90.5754 207.522L91.8736 206.548L93.1717 207.197V211.416L92.1981 212.39L90.5754 211.416V207.522L89.4395 207.846H89.9263V210.443H88.3036V211.416H89.9263V212.715H87.33V210.118L88.3036 209.469V208.496L86.6809 208.727L86.0318 208.82L86.6809 208.635Z" fill="#330BA6"/>
<path d="M93.8208 205.899V207.197H94.1454H95.7681L95.4435 207.846L94.1454 208.496V211.416H97.0662V209.794H95.4435V209.145L97.0662 208.496V205.899H96.7417H93.8208Z" fill="#330BA6"/>
<path d="M97.7153 207.522V205.899H100.636V211.416H99.0135V207.522H97.7153Z" fill="#330BA6"/>
<path d="M41.2449 217.583V216.934H43.9521L43.8412 219.53H42.2185M42.2185 219.53V220.828H44.4903V221.802H41.2449V219.53H42.2185ZM55.5248 214.986V214.85M55.5248 214.85V214.013H58.4456V218.556L55.5248 218.881V217.583H57.1475V216.609H56.4984V215.96H57.472V214.85H55.5248ZM62.9892 213.039V213.364M62.9892 213.364V214.013H64.2874V217.583H65.5856V212.39H62.9892V213.364ZM76.62 212.39H77.9182V210.767H76.62V209.794H79.5409V211.741L78.2428 212.065L78.8918 213.039M76.62 212.39V214.986H79.8655V213.039H78.8918M76.62 212.39L77.2691 213.039V214.013H78.8918V213.039M86.6809 208.82V207.846H89.9263V210.443H88.3036V211.416H89.9263V212.715H87.33V210.118L88.3036 209.469V208.496L86.0318 208.82L90.5754 207.522M90.5754 207.522V211.416L92.1981 212.39L93.1717 211.416V207.197L91.8736 206.548L90.5754 207.522ZM45.1394 216.285V217.583H46.4376V220.828H47.7357V216.285H45.1394ZM51.6302 214.986V218.556L52.9284 219.53L54.5511 218.556V214.986L52.9284 214.013L51.6302 214.986ZM58.9922 214.013V213.039H62.3402V218.556H59.4193V217.583H61.042V216.285H60.0684V215.635H61.042V214.013H59.4193H58.9922ZM70.1292 210.767L69.1556 214.013V214.986H71.4274V214.013H72.0764V216.285V210.767H70.1292ZM70.4537 212.39L70.1292 213.364H71.4274L71.1028 212.39H70.4537ZM73.0501 210.767H75.6464V215.635H73.0501V214.013H74.3482V213.364H73.6992V212.39H74.3482V211.741H73.0501V210.767ZM80.5146 210.443H81.4882V213.364H82.4618V208.82H80.5146V210.443ZM93.8208 207.197V205.899H96.7417H97.0662V208.496L95.4435 209.145V209.794H97.0662V211.416H94.1454V208.496L95.4435 207.846L95.7681 207.197H94.1454H93.8208ZM97.7153 205.899V207.522H99.0135V211.416H100.636V205.899H97.7153Z" stroke="white" stroke-width="0.649086"/>
<mask id="path-50-outside-1_61_82" maskUnits="userSpaceOnUse" x="91" y="283" width="70" height="21" fill="black">
<rect fill="white" x="91" y="283" width="70" height="21"/>
<path d="M97.664 302V287.84H92.096V285.2H106.352V287.84H100.784V302H97.664ZM108.101 302V289.184H110.957V292.712L110.621 291.68C111.005 290.816 111.605 290.16 112.421 289.712C113.253 289.264 114.285 289.04 115.517 289.04V291.896C115.389 291.864 115.269 291.848 115.157 291.848C115.045 291.832 114.933 291.824 114.821 291.824C113.685 291.824 112.781 292.16 112.109 292.832C111.437 293.488 111.101 294.472 111.101 295.784V302H108.101ZM125.044 302V299.408L124.876 298.856V294.32C124.876 293.44 124.612 292.76 124.084 292.28C123.556 291.784 122.756 291.536 121.684 291.536C120.964 291.536 120.252 291.648 119.548 291.872C118.86 292.096 118.276 292.408 117.796 292.808L116.62 290.624C117.308 290.096 118.124 289.704 119.068 289.448C120.028 289.176 121.02 289.04 122.044 289.04C123.9 289.04 125.332 289.488 126.34 290.384C127.364 291.264 127.876 292.632 127.876 294.488V302H125.044ZM121.012 302.168C120.052 302.168 119.212 302.008 118.492 301.688C117.772 301.352 117.212 300.896 116.812 300.32C116.428 299.728 116.236 299.064 116.236 298.328C116.236 297.608 116.404 296.96 116.74 296.384C117.092 295.808 117.66 295.352 118.444 295.016C119.228 294.68 120.268 294.512 121.564 294.512H125.284V296.504H121.78C120.756 296.504 120.068 296.672 119.716 297.008C119.364 297.328 119.188 297.728 119.188 298.208C119.188 298.752 119.404 299.184 119.836 299.504C120.268 299.824 120.868 299.984 121.636 299.984C122.372 299.984 123.028 299.816 123.604 299.48C124.196 299.144 124.62 298.648 124.876 297.992L125.38 299.792C125.092 300.544 124.572 301.128 123.82 301.544C123.084 301.96 122.148 302.168 121.012 302.168ZM137.629 302.168C136.285 302.168 135.085 301.888 134.029 301.328C132.989 300.752 132.173 299.968 131.581 298.976C130.989 297.984 130.693 296.856 130.693 295.592C130.693 294.312 130.989 293.184 131.581 292.208C132.173 291.216 132.989 290.44 134.029 289.88C135.085 289.32 136.285 289.04 137.629 289.04C138.877 289.04 139.973 289.296 140.917 289.808C141.877 290.304 142.605 291.04 143.101 292.016L140.797 293.36C140.413 292.752 139.941 292.304 139.381 292.016C138.837 291.728 138.245 291.584 137.605 291.584C136.869 291.584 136.205 291.744 135.613 292.064C135.021 292.384 134.557 292.848 134.221 293.456C133.885 294.048 133.717 294.76 133.717 295.592C133.717 296.424 133.885 297.144 134.221 297.752C134.557 298.344 135.021 298.8 135.613 299.12C136.205 299.44 136.869 299.6 137.605 299.6C138.245 299.6 138.837 299.456 139.381 299.168C139.941 298.88 140.413 298.432 140.797 297.824L143.101 299.168C142.605 300.128 141.877 300.872 140.917 301.4C139.973 301.912 138.877 302.168 137.629 302.168ZM148.025 299.144L148.097 295.376L154.793 289.184H158.393L152.705 294.896L151.121 296.216L148.025 299.144ZM145.577 302V284.192H148.577V302H145.577ZM155.249 302L150.569 296.216L152.465 293.816L158.897 302H155.249Z"/>
</mask>
<path d="M97.664 302H96.664V303H97.664V302ZM97.664 287.84H98.664V286.84H97.664V287.84ZM92.096 287.84H91.096V288.84H92.096V287.84ZM92.096 285.2V284.2H91.096V285.2H92.096ZM106.352 285.2H107.352V284.2H106.352V285.2ZM106.352 287.84V288.84H107.352V287.84H106.352ZM100.784 287.84V286.84H99.784V287.84H100.784ZM100.784 302V303H101.784V302H100.784ZM98.664 302V287.84H96.664V302H98.664ZM97.664 286.84H92.096V288.84H97.664V286.84ZM93.096 287.84V285.2H91.096V287.84H93.096ZM92.096 286.2H106.352V284.2H92.096V286.2ZM105.352 285.2V287.84H107.352V285.2H105.352ZM106.352 286.84H100.784V288.84H106.352V286.84ZM99.784 287.84V302H101.784V287.84H99.784ZM100.784 301H97.664V303H100.784V301ZM108.101 302H107.101V303H108.101V302ZM108.101 289.184V288.184H107.101V289.184H108.101ZM110.957 289.184H111.957V288.184H110.957V289.184ZM110.957 292.712L110.006 293.022L111.957 292.712H110.957ZM110.621 291.68L109.707 291.274L109.551 291.625L109.67 291.99L110.621 291.68ZM112.421 289.712L111.947 288.831L111.94 288.835L112.421 289.712ZM115.517 289.04H116.517V288.04H115.517V289.04ZM115.517 291.896L115.274 292.866L116.517 293.177V291.896H115.517ZM115.157 291.848L115.015 292.838L115.086 292.848H115.157V291.848ZM112.109 292.832L112.807 293.548L112.816 293.539L112.109 292.832ZM111.101 302V303H112.101V302H111.101ZM109.101 302V289.184H107.101V302H109.101ZM108.101 290.184H110.957V288.184H108.101V290.184ZM109.957 289.184V292.712H111.957V289.184H109.957ZM111.908 292.402L111.572 291.37L109.67 291.99L110.006 293.022L111.908 292.402ZM111.535 292.086C111.831 291.419 112.281 290.93 112.902 290.589L111.94 288.835C110.929 289.39 110.178 290.213 109.707 291.274L111.535 292.086ZM112.895 290.592C113.544 290.243 114.402 290.04 115.517 290.04V288.04C114.168 288.04 112.962 288.285 111.947 288.832L112.895 290.592ZM114.517 289.04V291.896H116.517V289.04H114.517ZM115.759 290.926C115.566 290.877 115.364 290.848 115.157 290.848V292.848C115.174 292.848 115.212 292.851 115.274 292.866L115.759 290.926ZM115.298 290.858C115.14 290.835 114.981 290.824 114.821 290.824V292.824C114.885 292.824 114.95 292.829 115.015 292.838L115.298 290.858ZM114.821 290.824C113.475 290.824 112.297 291.229 111.402 292.125L112.816 293.539C113.264 293.091 113.895 292.824 114.821 292.824V290.824ZM111.41 292.116C110.479 293.025 110.101 294.312 110.101 295.784H112.101C112.101 294.632 112.394 293.951 112.807 293.548L111.41 292.116ZM110.101 295.784V302H112.101V295.784H110.101ZM111.101 301H108.101V303H111.101V301ZM125.044 302H124.044V303H125.044V302ZM125.044 299.408H126.044V299.259L126 299.117L125.044 299.408ZM124.876 298.856H123.876V299.005L123.919 299.147L124.876 298.856ZM124.084 292.28L123.399 293.009L123.405 293.014L123.411 293.02L124.084 292.28ZM119.548 291.872L119.244 290.919L119.238 290.921L119.548 291.872ZM117.796 292.808L116.915 293.282L117.496 294.36L118.436 293.576L117.796 292.808ZM116.62 290.624L116.011 289.831L115.336 290.349L115.739 291.098L116.62 290.624ZM119.068 289.448L119.329 290.413L119.34 290.41L119.068 289.448ZM126.34 290.384L125.675 291.131L125.682 291.137L125.688 291.142L126.34 290.384ZM127.876 302V303H128.876V302H127.876ZM118.492 301.688L118.069 302.594L118.077 302.598L118.086 302.602L118.492 301.688ZM116.812 300.32L115.973 300.864L115.981 300.877L115.99 300.89L116.812 300.32ZM116.74 296.384L115.886 295.863L115.881 295.871L115.876 295.88L116.74 296.384ZM118.444 295.016L118.838 295.935L118.444 295.016ZM125.284 294.512H126.284V293.512H125.284V294.512ZM125.284 296.504V297.504H126.284V296.504H125.284ZM119.716 297.008L120.388 297.748L120.397 297.74L120.406 297.731L119.716 297.008ZM119.836 299.504L119.24 300.308V300.308L119.836 299.504ZM123.604 299.48L123.11 298.61L123.1 298.616L123.604 299.48ZM124.876 297.992L125.839 297.722L125.032 294.841L123.944 297.628L124.876 297.992ZM125.38 299.792L126.314 300.15L126.432 299.841L126.343 299.522L125.38 299.792ZM123.82 301.544L123.336 300.669L123.328 300.673L123.82 301.544ZM126.044 302V299.408H124.044V302H126.044ZM126 299.117L125.832 298.565L123.919 299.147L124.087 299.699L126 299.117ZM125.876 298.856V294.32H123.876V298.856H125.876ZM125.876 294.32C125.876 293.229 125.54 292.252 124.756 291.54L123.411 293.02C123.683 293.268 123.876 293.651 123.876 294.32H125.876ZM124.768 291.551C123.983 290.813 122.89 290.536 121.684 290.536V292.536C122.621 292.536 123.129 292.755 123.399 293.009L124.768 291.551ZM121.684 290.536C120.858 290.536 120.044 290.665 119.244 290.919L119.851 292.825C120.459 292.631 121.069 292.536 121.684 292.536V290.536ZM119.238 290.921C118.448 291.178 117.747 291.547 117.156 292.04L118.436 293.576C118.804 293.269 119.271 293.014 119.857 292.823L119.238 290.921ZM118.676 292.334L117.5 290.15L115.739 291.098L116.915 293.282L118.676 292.334ZM117.229 291.417C117.801 290.978 118.495 290.639 119.329 290.413L118.806 288.483C117.752 288.769 116.815 289.214 116.011 289.831L117.229 291.417ZM119.34 290.41C120.209 290.164 121.109 290.04 122.044 290.04V288.04C120.93 288.04 119.846 288.188 118.795 288.486L119.34 290.41ZM122.044 290.04C123.747 290.04 124.909 290.451 125.675 291.131L127.004 289.637C125.754 288.525 124.052 288.04 122.044 288.04V290.04ZM125.688 291.142C126.417 291.769 126.876 292.809 126.876 294.488H128.876C128.876 292.455 128.311 290.759 126.991 289.626L125.688 291.142ZM126.876 294.488V302H128.876V294.488H126.876ZM127.876 301H125.044V303H127.876V301ZM121.012 301.168C120.162 301.168 119.465 301.026 118.898 300.774L118.086 302.602C118.958 302.99 119.942 303.168 121.012 303.168V301.168ZM118.915 300.782C118.333 300.51 117.919 300.162 117.633 299.75L115.99 300.89C116.504 301.63 117.21 302.194 118.069 302.594L118.915 300.782ZM117.651 299.776C117.376 299.353 117.236 298.88 117.236 298.328H115.236C115.236 299.248 115.479 300.103 115.973 300.864L117.651 299.776ZM117.236 298.328C117.236 297.77 117.364 297.299 117.603 296.888L115.876 295.88C115.444 296.621 115.236 297.446 115.236 298.328H117.236ZM117.593 296.905C117.811 296.548 118.194 296.211 118.838 295.935L118.05 294.097C117.126 294.493 116.372 295.068 115.886 295.863L117.593 296.905ZM118.838 295.935C119.45 295.673 120.34 295.512 121.564 295.512V293.512C120.196 293.512 119.006 293.687 118.05 294.097L118.838 295.935ZM121.564 295.512H125.284V293.512H121.564V295.512ZM124.284 294.512V296.504H126.284V294.512H124.284ZM125.284 295.504H121.78V297.504H125.284V295.504ZM121.78 295.504C121.22 295.504 120.706 295.549 120.258 295.659C119.817 295.766 119.373 295.953 119.025 296.285L120.406 297.731C120.411 297.727 120.487 297.662 120.733 297.601C120.973 297.543 121.315 297.504 121.78 297.504V295.504ZM119.043 296.268C118.48 296.78 118.188 297.449 118.188 298.208H120.188C120.188 298.007 120.247 297.876 120.388 297.748L119.043 296.268ZM118.188 298.208C118.188 299.064 118.55 299.796 119.24 300.308L120.431 298.7C120.257 298.572 120.188 298.44 120.188 298.208H118.188ZM119.24 300.308C119.905 300.799 120.742 300.984 121.636 300.984V298.984C120.993 298.984 120.631 298.849 120.431 298.7L119.24 300.308ZM121.636 300.984C122.53 300.984 123.363 300.778 124.108 300.344L123.1 298.616C122.692 298.854 122.213 298.984 121.636 298.984V300.984ZM124.097 300.35C124.896 299.896 125.471 299.218 125.807 298.356L123.944 297.628C123.769 298.078 123.495 298.392 123.11 298.61L124.097 300.35ZM123.913 298.262L124.417 300.062L126.343 299.522L125.839 297.722L123.913 298.262ZM124.446 299.434C124.248 299.951 123.896 300.359 123.336 300.669L124.304 302.419C125.247 301.897 125.935 301.137 126.314 300.15L124.446 299.434ZM123.328 300.673C122.785 300.98 122.032 301.168 121.012 301.168V303.168C122.263 303.168 123.383 302.94 124.312 302.415L123.328 300.673ZM134.029 301.328L133.545 302.203L133.553 302.207L133.561 302.211L134.029 301.328ZM131.581 298.976L130.723 299.488L131.581 298.976ZM131.581 292.208L132.436 292.727L132.44 292.72L131.581 292.208ZM134.029 289.88L133.561 288.997L133.555 289L134.029 289.88ZM140.917 289.808L140.44 290.687L140.449 290.692L140.458 290.696L140.917 289.808ZM143.101 292.016L143.605 292.88L144.42 292.404L143.993 291.563L143.101 292.016ZM140.797 293.36L139.952 293.894L140.467 294.71L141.301 294.224L140.797 293.36ZM139.381 292.016L138.913 292.9L138.924 292.905L139.381 292.016ZM135.613 292.064L135.138 291.184L135.613 292.064ZM134.221 293.456L135.091 293.95L135.096 293.94L134.221 293.456ZM134.221 297.752L133.346 298.236L133.352 298.246L134.221 297.752ZM135.613 299.12L136.089 298.24L135.613 299.12ZM139.381 299.168L138.924 298.279L138.913 298.284L139.381 299.168ZM140.797 297.824L141.301 296.96L140.467 296.474L139.952 297.29L140.797 297.824ZM143.101 299.168L143.99 299.627L144.426 298.783L143.605 298.304L143.101 299.168ZM140.917 301.4L141.394 302.279L141.399 302.276L140.917 301.4ZM137.629 301.168C136.428 301.168 135.392 300.919 134.498 300.445L133.561 302.211C134.778 302.857 136.143 303.168 137.629 303.168V301.168ZM134.514 300.453C133.624 299.96 132.939 299.299 132.44 298.464L130.723 299.488C131.408 300.637 132.355 301.544 133.545 302.203L134.514 300.453ZM132.44 298.464C131.949 297.641 131.693 296.693 131.693 295.592H129.693C129.693 297.019 130.029 298.327 130.723 299.488L132.44 298.464ZM131.693 295.592C131.693 294.472 131.95 293.528 132.436 292.727L130.726 291.689C130.028 292.84 129.693 294.152 129.693 295.592H131.693ZM132.44 292.72C132.937 291.887 133.619 291.237 134.503 290.76L133.555 289C132.36 289.643 131.409 290.545 130.723 291.696L132.44 292.72ZM134.498 290.763C135.392 290.289 136.428 290.04 137.629 290.04V288.04C136.143 288.04 134.778 288.351 133.561 288.997L134.498 290.763ZM137.629 290.04C138.738 290.04 139.665 290.266 140.44 290.687L141.394 288.929C140.282 288.326 139.017 288.04 137.629 288.04V290.04ZM140.458 290.696C141.229 291.095 141.807 291.677 142.21 292.469L143.993 291.563C143.403 290.403 142.525 289.513 141.376 288.92L140.458 290.696ZM142.597 291.152L140.293 292.496L141.301 294.224L143.605 292.88L142.597 291.152ZM141.643 292.826C141.177 292.089 140.579 291.507 139.839 291.127L138.924 292.905C139.304 293.101 139.649 293.415 139.952 293.894L141.643 292.826ZM139.849 291.132C139.155 290.765 138.402 290.584 137.605 290.584V292.584C138.089 292.584 138.519 292.691 138.913 292.9L139.849 291.132ZM137.605 290.584C136.719 290.584 135.889 290.778 135.138 291.184L136.089 292.944C136.521 292.71 137.019 292.584 137.605 292.584V290.584ZM135.138 291.184C134.372 291.598 133.771 292.202 133.346 292.972L135.096 293.94C135.343 293.494 135.671 293.17 136.089 292.944L135.138 291.184ZM133.352 292.962C132.913 293.735 132.717 294.625 132.717 295.592H134.717C134.717 294.895 134.857 294.361 135.091 293.95L133.352 292.962ZM132.717 295.592C132.717 296.56 132.913 297.453 133.346 298.236L135.096 297.268C134.857 296.835 134.717 296.288 134.717 295.592H132.717ZM133.352 298.246C133.779 298.999 134.379 299.589 135.138 300L136.089 298.24C135.664 298.011 135.335 297.689 135.091 297.258L133.352 298.246ZM135.138 300C135.889 300.406 136.719 300.6 137.605 300.6V298.6C137.019 298.6 136.521 298.474 136.089 298.24L135.138 300ZM137.605 300.6C138.402 300.6 139.155 300.419 139.849 300.052L138.913 298.284C138.519 298.493 138.089 298.6 137.605 298.6V300.6ZM139.839 300.057C140.579 299.677 141.177 299.095 141.643 298.358L139.952 297.29C139.649 297.769 139.304 298.083 138.924 298.279L139.839 300.057ZM140.293 298.688L142.597 300.032L143.605 298.304L141.301 296.96L140.293 298.688ZM142.213 298.709C141.809 299.49 141.224 300.09 140.435 300.524L141.399 302.276C142.53 301.654 143.401 300.766 143.99 299.627L142.213 298.709ZM140.44 300.521C139.665 300.942 138.738 301.168 137.629 301.168V303.168C139.017 303.168 140.282 302.882 141.394 302.279L140.44 300.521ZM148.025 299.144L147.026 299.125L146.98 301.509L148.712 299.871L148.025 299.144ZM148.097 295.376L147.418 294.642L147.106 294.931L147.098 295.357L148.097 295.376ZM154.793 289.184V288.184H154.402L154.114 288.45L154.793 289.184ZM158.393 289.184L159.102 289.89L160.8 288.184H158.393V289.184ZM152.705 294.896L153.346 295.664L153.381 295.635L153.414 295.602L152.705 294.896ZM151.121 296.216L150.481 295.448L150.457 295.468L150.434 295.489L151.121 296.216ZM145.577 302H144.577V303H145.577V302ZM145.577 284.192V283.192H144.577V284.192H145.577ZM148.577 284.192H149.577V283.192H148.577V284.192ZM148.577 302V303H149.577V302H148.577ZM155.249 302L154.472 302.629L154.772 303H155.249V302ZM150.569 296.216L149.785 295.596L149.289 296.223L149.792 296.845L150.569 296.216ZM152.465 293.816L153.252 293.198L152.467 292.2L151.681 293.196L152.465 293.816ZM158.897 302V303H160.955L159.684 301.382L158.897 302ZM149.025 299.163L149.097 295.395L147.098 295.357L147.026 299.125L149.025 299.163ZM148.776 296.11L155.472 289.918L154.114 288.45L147.418 294.642L148.776 296.11ZM154.793 290.184H158.393V288.184H154.793V290.184ZM157.685 288.478L151.997 294.19L153.414 295.602L159.102 289.89L157.685 288.478ZM152.065 294.128L150.481 295.448L151.762 296.984L153.346 295.664L152.065 294.128ZM150.434 295.489L147.338 298.417L148.712 299.871L151.808 296.943L150.434 295.489ZM146.577 302V284.192H144.577V302H146.577ZM145.577 285.192H148.577V283.192H145.577V285.192ZM147.577 284.192V302H149.577V284.192H147.577ZM148.577 301H145.577V303H148.577V301ZM156.027 301.371L151.347 295.587L149.792 296.845L154.472 302.629L156.027 301.371ZM151.354 296.836L153.25 294.436L151.681 293.196L149.785 295.596L151.354 296.836ZM151.679 294.434L158.111 302.618L159.684 301.382L153.252 293.198L151.679 294.434ZM158.897 301H155.249V303H158.897V301Z" fill="#330BA6" mask="url(#path-50-outside-1_61_82)"/>
<mask id="path-52-outside-2_61_82" maskUnits="userSpaceOnUse" x="195" y="311" width="112" height="25" fill="black">
<rect fill="white" x="195" y="311" width="112" height="25"/>
<path d="M196.256 330V313.2H203.168C204.656 313.2 205.928 313.44 206.984 313.92C208.056 314.4 208.88 315.088 209.456 315.984C210.032 316.88 210.32 317.944 210.32 319.176C210.32 320.408 210.032 321.472 209.456 322.368C208.88 323.264 208.056 323.952 206.984 324.432C205.928 324.912 204.656 325.152 203.168 325.152H197.984L199.376 323.688V330H196.256ZM199.376 324.024L197.984 322.512H203.024C204.4 322.512 205.432 322.224 206.12 321.648C206.824 321.056 207.176 320.232 207.176 319.176C207.176 318.104 206.824 317.28 206.12 316.704C205.432 316.128 204.4 315.84 203.024 315.84H197.984L199.376 314.304V324.024ZM220.927 330V327.408L220.759 326.856V322.32C220.759 321.44 220.495 320.76 219.967 320.28C219.439 319.784 218.639 319.536 217.567 319.536C216.847 319.536 216.135 319.648 215.431 319.872C214.743 320.096 214.159 320.408 213.679 320.808L212.503 318.624C213.191 318.096 214.007 317.704 214.951 317.448C215.911 317.176 216.903 317.04 217.927 317.04C219.783 317.04 221.215 317.488 222.223 318.384C223.247 319.264 223.759 320.632 223.759 322.488V330H220.927ZM216.895 330.168C215.935 330.168 215.095 330.008 214.375 329.688C213.655 329.352 213.095 328.896 212.695 328.32C212.311 327.728 212.119 327.064 212.119 326.328C212.119 325.608 212.287 324.96 212.623 324.384C212.975 323.808 213.543 323.352 214.327 323.016C215.111 322.68 216.151 322.512 217.447 322.512H221.167V324.504H217.663C216.639 324.504 215.951 324.672 215.599 325.008C215.247 325.328 215.071 325.728 215.071 326.208C215.071 326.752 215.287 327.184 215.719 327.504C216.151 327.824 216.751 327.984 217.519 327.984C218.255 327.984 218.911 327.816 219.487 327.48C220.079 327.144 220.503 326.648 220.759 325.992L221.263 327.792C220.975 328.544 220.455 329.128 219.703 329.544C218.967 329.96 218.031 330.168 216.895 330.168ZM228.43 334.824C227.806 334.824 227.182 334.72 226.558 334.512C225.934 334.304 225.414 334.016 224.998 333.648L226.198 331.44C226.502 331.712 226.846 331.928 227.23 332.088C227.614 332.248 228.006 332.328 228.406 332.328C228.95 332.328 229.39 332.192 229.726 331.92C230.062 331.648 230.374 331.192 230.662 330.552L231.406 328.872L231.646 328.512L236.494 317.184H239.374L233.374 331.032C232.974 331.992 232.526 332.752 232.03 333.312C231.55 333.872 231.006 334.264 230.398 334.488C229.806 334.712 229.15 334.824 228.43 334.824ZM231.07 330.456L225.286 317.184H228.406L233.11 328.248L231.07 330.456ZM257.425 317.04C258.449 317.04 259.353 317.24 260.137 317.64C260.937 318.04 261.561 318.656 262.009 319.488C262.457 320.304 262.681 321.36 262.681 322.656V330H259.681V323.04C259.681 321.904 259.433 321.056 258.937 320.496C258.441 319.936 257.729 319.656 256.801 319.656C256.145 319.656 255.561 319.8 255.049 320.088C254.553 320.376 254.161 320.8 253.873 321.36C253.601 321.92 253.465 322.632 253.465 323.496V330H250.465V323.04C250.465 321.904 250.217 321.056 249.721 320.496C249.225 319.936 248.513 319.656 247.585 319.656C246.929 319.656 246.345 319.8 245.833 320.088C245.337 320.376 244.945 320.8 244.657 321.36C244.385 321.92 244.249 322.632 244.249 323.496V330H241.249V317.184H244.105V320.592L243.601 319.584C244.033 318.752 244.657 318.12 245.473 317.688C246.305 317.256 247.249 317.04 248.305 317.04C249.505 317.04 250.545 317.336 251.425 317.928C252.321 318.52 252.913 319.416 253.201 320.616L252.025 320.208C252.441 319.248 253.129 318.48 254.089 317.904C255.049 317.328 256.161 317.04 257.425 317.04ZM272.562 330.168C271.138 330.168 269.89 329.888 268.818 329.328C267.762 328.752 266.938 327.968 266.346 326.976C265.77 325.984 265.482 324.856 265.482 323.592C265.482 322.312 265.762 321.184 266.322 320.208C266.898 319.216 267.682 318.44 268.674 317.88C269.682 317.32 270.826 317.04 272.106 317.04C273.354 317.04 274.466 317.312 275.442 317.856C276.418 318.4 277.186 319.168 277.746 320.16C278.306 321.152 278.586 322.32 278.586 323.664C278.586 323.792 278.578 323.936 278.562 324.096C278.562 324.256 278.554 324.408 278.538 324.552H267.858V322.56H276.954L275.778 323.184C275.794 322.448 275.642 321.8 275.322 321.24C275.002 320.68 274.562 320.24 274.002 319.92C273.458 319.6 272.826 319.44 272.106 319.44C271.37 319.44 270.722 319.6 270.162 319.92C269.618 320.24 269.186 320.688 268.866 321.264C268.562 321.824 268.41 322.488 268.41 323.256V323.736C268.41 324.504 268.586 325.184 268.938 325.776C269.29 326.368 269.786 326.824 270.426 327.144C271.066 327.464 271.802 327.624 272.634 327.624C273.354 327.624 274.002 327.512 274.578 327.288C275.154 327.064 275.666 326.712 276.114 326.232L277.722 328.08C277.146 328.752 276.418 329.272 275.538 329.64C274.674 329.992 273.682 330.168 272.562 330.168ZM288.74 317.04C289.764 317.04 290.676 317.24 291.476 317.64C292.292 318.04 292.932 318.656 293.396 319.488C293.86 320.304 294.092 321.36 294.092 322.656V330H291.092V323.04C291.092 321.904 290.82 321.056 290.276 320.496C289.748 319.936 289.004 319.656 288.044 319.656C287.34 319.656 286.716 319.8 286.172 320.088C285.628 320.376 285.204 320.808 284.9 321.384C284.612 321.944 284.468 322.656 284.468 323.52V330H281.468V317.184H284.324V320.64L283.82 319.584C284.268 318.768 284.916 318.144 285.764 317.712C286.628 317.264 287.62 317.04 288.74 317.04ZM302.722 330.168C301.314 330.168 300.226 329.808 299.458 329.088C298.69 328.352 298.306 327.272 298.306 325.848V314.352H301.306V325.776C301.306 326.384 301.458 326.856 301.762 327.192C302.082 327.528 302.522 327.696 303.082 327.696C303.754 327.696 304.314 327.52 304.762 327.168L305.602 329.304C305.25 329.592 304.818 329.808 304.306 329.952C303.794 330.096 303.266 330.168 302.722 330.168ZM296.194 319.68V317.28H304.738V319.68H296.194Z"/>
</mask>
<path d="M196.256 330H195.256V331H196.256V330ZM196.256 313.2V312.2H195.256V313.2H196.256ZM206.984 313.92L206.57 314.83L206.575 314.833L206.984 313.92ZM209.456 315.984L210.297 315.443V315.443L209.456 315.984ZM209.456 322.368L210.297 322.909V322.909L209.456 322.368ZM206.984 324.432L206.575 323.519L206.57 323.522L206.984 324.432ZM197.984 325.152L197.259 324.463L195.653 326.152H197.984V325.152ZM199.376 323.688H200.376V321.185L198.651 322.999L199.376 323.688ZM199.376 330V331H200.376V330H199.376ZM199.376 324.024L198.64 324.701L200.376 326.587V324.024H199.376ZM197.984 322.512V321.512H195.704L197.248 323.189L197.984 322.512ZM206.12 321.648L206.762 322.415L206.764 322.413L206.12 321.648ZM206.12 316.704L205.478 317.471L205.487 317.478L206.12 316.704ZM197.984 315.84L197.243 315.168L195.728 316.84H197.984V315.84ZM199.376 314.304H200.376V311.711L198.635 313.632L199.376 314.304ZM197.256 330V313.2H195.256V330H197.256ZM196.256 314.2H203.168V312.2H196.256V314.2ZM203.168 314.2C204.552 314.2 205.675 314.424 206.57 314.83L207.398 313.01C206.181 312.456 204.76 312.2 203.168 312.2V314.2ZM206.575 314.833C207.489 315.242 208.154 315.809 208.615 316.525L210.297 315.443C209.606 314.367 208.623 313.558 207.393 313.007L206.575 314.833ZM208.615 316.525C209.072 317.235 209.32 318.105 209.32 319.176H211.32C211.32 317.783 210.992 316.525 210.297 315.443L208.615 316.525ZM209.32 319.176C209.32 320.247 209.072 321.117 208.615 321.827L210.297 322.909C210.992 321.827 211.32 320.569 211.32 319.176H209.32ZM208.615 321.827C208.154 322.543 207.489 323.11 206.575 323.519L207.393 325.345C208.623 324.794 209.606 323.985 210.297 322.909L208.615 321.827ZM206.57 323.522C205.675 323.928 204.552 324.152 203.168 324.152V326.152C204.76 326.152 206.181 325.896 207.398 325.342L206.57 323.522ZM203.168 324.152H197.984V326.152H203.168V324.152ZM198.709 325.841L200.101 324.377L198.651 322.999L197.259 324.463L198.709 325.841ZM198.376 323.688V330H200.376V323.688H198.376ZM199.376 329H196.256V331H199.376V329ZM200.112 323.347L198.72 321.835L197.248 323.189L198.64 324.701L200.112 323.347ZM197.984 323.512H203.024V321.512H197.984V323.512ZM203.024 323.512C204.515 323.512 205.82 323.204 206.762 322.415L205.478 320.881C205.044 321.244 204.285 321.512 203.024 321.512V323.512ZM206.764 322.413C207.728 321.602 208.176 320.478 208.176 319.176H206.176C206.176 319.986 205.92 320.51 205.476 320.883L206.764 322.413ZM208.176 319.176C208.176 317.864 207.732 316.731 206.753 315.93L205.487 317.478C205.916 317.829 206.176 318.344 206.176 319.176H208.176ZM206.762 315.937C205.82 315.148 204.515 314.84 203.024 314.84V316.84C204.285 316.84 205.044 317.108 205.478 317.471L206.762 315.937ZM203.024 314.84H197.984V316.84H203.024V314.84ZM198.725 316.512L200.117 314.976L198.635 313.632L197.243 315.168L198.725 316.512ZM198.376 314.304V324.024H200.376V314.304H198.376ZM220.927 330H219.927V331H220.927V330ZM220.927 327.408H221.927V327.259L221.883 327.117L220.927 327.408ZM220.759 326.856H219.759V327.005L219.802 327.147L220.759 326.856ZM219.967 320.28L219.282 321.009L219.288 321.014L219.294 321.02L219.967 320.28ZM215.431 319.872L215.127 318.919L215.121 318.921L215.431 319.872ZM213.678 320.808L212.798 321.282L213.378 322.36L214.319 321.576L213.678 320.808ZM212.503 318.624L211.894 317.831L211.219 318.349L211.622 319.098L212.503 318.624ZM214.951 317.448L215.212 318.413L215.223 318.41L214.951 317.448ZM222.222 318.384L221.558 319.131L221.564 319.137L221.571 319.142L222.222 318.384ZM223.759 330V331H224.759V330H223.759ZM214.375 329.688L213.952 330.594L213.96 330.598L213.968 330.602L214.375 329.688ZM212.694 328.32L211.856 328.864L211.864 328.877L211.873 328.89L212.694 328.32ZM212.622 324.384L211.769 323.863L211.764 323.871L211.759 323.88L212.622 324.384ZM214.326 323.016L214.72 323.935L214.326 323.016ZM221.167 322.512H222.167V321.512H221.167V322.512ZM221.167 324.504V325.504H222.167V324.504H221.167ZM215.598 325.008L216.271 325.748L216.28 325.74L216.289 325.731L215.598 325.008ZM215.719 327.504L215.123 328.308V328.308L215.719 327.504ZM219.486 327.48L218.993 326.61L218.983 326.616L219.486 327.48ZM220.759 325.992L221.721 325.722L220.915 322.841L219.827 325.628L220.759 325.992ZM221.263 327.792L222.196 328.15L222.315 327.841L222.225 327.522L221.263 327.792ZM219.702 329.544L219.218 328.669L219.21 328.673L219.702 329.544ZM221.927 330V327.408H219.927V330H221.927ZM221.883 327.117L221.715 326.565L219.802 327.147L219.97 327.699L221.883 327.117ZM221.759 326.856V322.32H219.759V326.856H221.759ZM221.759 322.32C221.759 321.229 221.423 320.252 220.639 319.54L219.294 321.02C219.566 321.268 219.759 321.651 219.759 322.32H221.759ZM220.651 319.551C219.866 318.813 218.773 318.536 217.567 318.536V320.536C218.504 320.536 219.011 320.755 219.282 321.009L220.651 319.551ZM217.567 318.536C216.741 318.536 215.927 318.665 215.127 318.919L215.734 320.825C216.342 320.631 216.952 320.536 217.567 320.536V318.536ZM215.121 318.921C214.331 319.178 213.63 319.547 213.038 320.04L214.319 321.576C214.687 321.269 215.154 321.014 215.74 320.823L215.121 318.921ZM214.559 320.334L213.383 318.15L211.622 319.098L212.798 321.282L214.559 320.334ZM213.111 319.417C213.684 318.978 214.378 318.639 215.212 318.413L214.689 316.483C213.635 316.769 212.697 317.214 211.894 317.831L213.111 319.417ZM215.223 318.41C216.092 318.164 216.992 318.04 217.927 318.04V316.04C216.813 316.04 215.729 316.188 214.678 316.486L215.223 318.41ZM217.927 318.04C219.63 318.04 220.792 318.451 221.558 319.131L222.887 317.637C221.637 316.525 219.935 316.04 217.927 316.04V318.04ZM221.571 319.142C222.3 319.769 222.759 320.809 222.759 322.488H224.759C224.759 320.455 224.193 318.759 222.874 317.626L221.571 319.142ZM222.759 322.488V330H224.759V322.488H222.759ZM223.759 329H220.927V331H223.759V329ZM216.895 329.168C216.045 329.168 215.348 329.026 214.781 328.774L213.968 330.602C214.841 330.99 215.824 331.168 216.895 331.168V329.168ZM214.797 328.782C214.216 328.51 213.802 328.162 213.516 327.75L211.873 328.89C212.387 329.63 213.093 330.194 213.952 330.594L214.797 328.782ZM213.533 327.776C213.259 327.353 213.118 326.88 213.118 326.328H211.118C211.118 327.248 211.362 328.103 211.856 328.864L213.533 327.776ZM213.118 326.328C213.118 325.77 213.247 325.299 213.486 324.888L211.759 323.88C211.326 324.621 211.118 325.446 211.118 326.328H213.118ZM213.476 324.905C213.694 324.548 214.077 324.211 214.72 323.935L213.933 322.097C213.008 322.493 212.255 323.068 211.769 323.863L213.476 324.905ZM214.72 323.935C215.332 323.673 216.222 323.512 217.447 323.512V321.512C216.079 321.512 214.889 321.687 213.933 322.097L214.72 323.935ZM217.447 323.512H221.167V321.512H217.447V323.512ZM220.167 322.512V324.504H222.167V322.512H220.167ZM221.167 323.504H217.663V325.504H221.167V323.504ZM217.663 323.504C217.103 323.504 216.589 323.549 216.141 323.659C215.7 323.766 215.256 323.953 214.908 324.285L216.289 325.731C216.293 325.727 216.369 325.662 216.616 325.601C216.856 325.543 217.198 325.504 217.663 325.504V323.504ZM214.926 324.268C214.363 324.78 214.07 325.449 214.07 326.208H216.07C216.07 326.007 216.13 325.876 216.271 325.748L214.926 324.268ZM214.07 326.208C214.07 327.064 214.433 327.796 215.123 328.308L216.314 326.7C216.14 326.572 216.07 326.44 216.07 326.208H214.07ZM215.123 328.308C215.787 328.799 216.625 328.984 217.519 328.984V326.984C216.876 326.984 216.514 326.849 216.314 326.7L215.123 328.308ZM217.519 328.984C218.413 328.984 219.246 328.778 219.99 328.344L218.983 326.616C218.575 326.854 218.096 326.984 217.519 326.984V328.984ZM219.98 328.35C220.779 327.896 221.354 327.218 221.69 326.356L219.827 325.628C219.651 326.078 219.378 326.392 218.993 326.61L219.98 328.35ZM219.796 326.262L220.3 328.062L222.225 327.522L221.721 325.722L219.796 326.262ZM220.329 327.434C220.131 327.951 219.779 328.359 219.218 328.669L220.187 330.419C221.13 329.897 221.818 329.137 222.196 328.15L220.329 327.434ZM219.21 328.673C218.667 328.98 217.915 329.168 216.895 329.168V331.168C218.146 331.168 219.266 330.94 220.195 330.415L219.21 328.673ZM226.558 334.512L226.242 335.461L226.558 334.512ZM224.998 333.648L224.12 333.17L223.74 333.87L224.336 334.397L224.998 333.648ZM226.198 331.44L226.865 330.695L225.923 329.852L225.32 330.962L226.198 331.44ZM227.23 332.088L227.615 331.165L227.23 332.088ZM229.726 331.92L230.355 332.697L229.726 331.92ZM230.662 330.552L231.574 330.962L231.577 330.957L230.662 330.552ZM231.406 328.872L230.574 328.317L230.527 328.389L230.492 328.467L231.406 328.872ZM231.646 328.512L232.478 329.067L232.529 328.99L232.566 328.905L231.646 328.512ZM236.494 317.184V316.184H235.834L235.575 316.791L236.494 317.184ZM239.374 317.184L240.292 317.582L240.897 316.184H239.374V317.184ZM233.374 331.032L232.457 330.634L232.451 330.647L233.374 331.032ZM232.03 333.312L231.282 332.649L231.276 332.655L231.271 332.661L232.03 333.312ZM230.398 334.488L230.053 333.55L230.044 333.553L230.398 334.488ZM231.07 330.456L230.154 330.856L230.765 332.26L231.805 331.135L231.07 330.456ZM225.286 317.184V316.184H223.76L224.37 317.584L225.286 317.184ZM228.406 317.184L229.327 316.793L229.068 316.184H228.406V317.184ZM233.11 328.248L233.845 328.927L234.283 328.452L234.031 327.857L233.11 328.248ZM228.43 333.824C227.919 333.824 227.402 333.739 226.874 333.563L226.242 335.461C226.962 335.701 227.693 335.824 228.43 335.824V333.824ZM226.874 333.563C226.355 333.39 225.959 333.163 225.661 332.899L224.336 334.397C224.869 334.869 225.513 335.218 226.242 335.461L226.874 333.563ZM225.877 334.126L227.077 331.918L225.32 330.962L224.12 333.17L225.877 334.126ZM225.531 332.185C225.921 332.533 226.36 332.809 226.846 333.011L227.615 331.165C227.332 331.047 227.084 330.891 226.865 330.695L225.531 332.185ZM226.846 333.011C227.347 333.22 227.869 333.328 228.406 333.328V331.328C228.144 331.328 227.882 331.276 227.615 331.165L226.846 333.011ZM228.406 333.328C229.119 333.328 229.799 333.147 230.355 332.697L229.097 331.143C228.981 331.237 228.782 331.328 228.406 331.328V333.328ZM230.355 332.697C230.866 332.284 231.257 331.666 231.574 330.962L229.75 330.142C229.491 330.718 229.258 331.012 229.097 331.143L230.355 332.697ZM231.577 330.957L232.321 329.277L230.492 328.467L229.748 330.147L231.577 330.957ZM232.238 329.427L232.478 329.067L230.814 327.957L230.574 328.317L232.238 329.427ZM232.566 328.905L237.414 317.577L235.575 316.791L230.727 328.119L232.566 328.905ZM236.494 318.184H239.374V316.184H236.494V318.184ZM238.457 316.786L232.457 330.634L234.292 331.43L240.292 317.582L238.457 316.786ZM232.451 330.647C232.078 331.542 231.682 332.197 231.282 332.649L232.779 333.975C233.37 333.307 233.87 332.442 234.297 331.417L232.451 330.647ZM231.271 332.661C230.886 333.11 230.479 333.392 230.053 333.55L230.744 335.426C231.533 335.136 232.214 334.634 232.79 333.963L231.271 332.661ZM230.044 333.553C229.58 333.728 229.046 333.824 228.43 333.824V335.824C229.255 335.824 230.033 335.696 230.752 335.423L230.044 333.553ZM231.987 330.056L226.203 316.784L224.37 317.584L230.154 330.856L231.987 330.056ZM225.286 318.184H228.406V316.184H225.286V318.184ZM227.486 317.575L232.19 328.639L234.031 327.857L229.327 316.793L227.486 317.575ZM232.376 327.569L230.336 329.777L231.805 331.135L233.845 328.927L232.376 327.569ZM260.137 317.64L259.683 318.531L259.69 318.534L260.137 317.64ZM262.009 319.488L261.129 319.962L261.133 319.969L262.009 319.488ZM262.681 330V331H263.681V330H262.681ZM259.681 330H258.681V331H259.681V330ZM258.937 320.496L259.686 319.833V319.833L258.937 320.496ZM255.049 320.088L254.559 319.216L254.547 319.223L255.049 320.088ZM253.873 321.36L252.984 320.903L252.979 320.913L252.974 320.923L253.873 321.36ZM253.465 330V331H254.465V330H253.465ZM250.465 330H249.465V331H250.465V330ZM249.721 320.496L250.47 319.833L249.721 320.496ZM245.833 320.088L245.343 319.216L245.331 319.223L245.833 320.088ZM244.657 321.36L243.768 320.903L243.763 320.913L243.758 320.923L244.657 321.36ZM244.249 330V331H245.249V330H244.249ZM241.249 330H240.249V331H241.249V330ZM241.249 317.184V316.184H240.249V317.184H241.249ZM244.105 317.184H245.105V316.184H244.105V317.184ZM244.105 320.592L243.211 321.039L245.105 320.592H244.105ZM243.601 319.584L242.714 319.123L242.479 319.575L242.707 320.031L243.601 319.584ZM245.473 317.688L245.012 316.8L245.005 316.804L245.473 317.688ZM251.425 317.928L250.867 318.758L250.874 318.762L251.425 317.928ZM253.201 320.616L252.873 321.561L254.6 322.16L254.174 320.383L253.201 320.616ZM252.025 320.208L251.108 319.81L250.679 320.799L251.697 321.153L252.025 320.208ZM254.089 317.904L254.604 318.761L254.089 317.904ZM257.425 318.04C258.317 318.04 259.061 318.213 259.683 318.531L260.592 316.749C259.646 316.267 258.581 316.04 257.425 316.04V318.04ZM259.69 318.534C260.295 318.837 260.773 319.301 261.129 319.962L262.89 319.014C262.35 318.011 261.579 317.243 260.584 316.746L259.69 318.534ZM261.133 319.969C261.474 320.591 261.681 321.466 261.681 322.656H263.681C263.681 321.254 263.44 320.017 262.886 319.007L261.133 319.969ZM261.681 322.656V330H263.681V322.656H261.681ZM262.681 329H259.681V331H262.681V329ZM260.681 330V323.04H258.681V330H260.681ZM260.681 323.04C260.681 321.782 260.41 320.65 259.686 319.833L258.189 321.159C258.457 321.462 258.681 322.026 258.681 323.04H260.681ZM259.686 319.833C258.956 319.009 257.941 318.656 256.801 318.656V320.656C257.517 320.656 257.927 320.863 258.189 321.159L259.686 319.833ZM256.801 318.656C255.994 318.656 255.238 318.835 254.559 319.216L255.54 320.96C255.885 320.765 256.297 320.656 256.801 320.656V318.656ZM254.547 319.223C253.87 319.617 253.351 320.19 252.984 320.903L254.763 321.817C254.972 321.41 255.237 321.135 255.551 320.953L254.547 319.223ZM252.974 320.923C252.615 321.661 252.465 322.536 252.465 323.496H254.465C254.465 322.728 254.587 322.179 254.773 321.797L252.974 320.923ZM252.465 323.496V330H254.465V323.496H252.465ZM253.465 329H250.465V331H253.465V329ZM251.465 330V323.04H249.465V330H251.465ZM251.465 323.04C251.465 321.782 251.194 320.65 250.47 319.833L248.973 321.159C249.241 321.462 249.465 322.026 249.465 323.04H251.465ZM250.47 319.833C249.74 319.009 248.725 318.656 247.585 318.656V320.656C248.301 320.656 248.711 320.863 248.973 321.159L250.47 319.833ZM247.585 318.656C246.778 318.656 246.022 318.835 245.343 319.216L246.324 320.96C246.669 320.765 247.081 320.656 247.585 320.656V318.656ZM245.331 319.223C244.654 319.617 244.135 320.19 243.768 320.903L245.547 321.817C245.756 321.41 246.021 321.135 246.335 320.953L245.331 319.223ZM243.758 320.923C243.399 321.661 243.249 322.536 243.249 323.496H245.249C245.249 322.728 245.371 322.179 245.557 321.797L243.758 320.923ZM243.249 323.496V330H245.249V323.496H243.249ZM244.249 329H241.249V331H244.249V329ZM242.249 330V317.184H240.249V330H242.249ZM241.249 318.184H244.105V316.184H241.249V318.184ZM243.105 317.184V320.592H245.105V317.184H243.105ZM245 320.145L244.496 319.137L242.707 320.031L243.211 321.039L245 320.145ZM244.489 320.045C244.829 319.39 245.308 318.907 245.941 318.572L245.005 316.804C244.007 317.333 243.238 318.114 242.714 319.123L244.489 320.045ZM245.934 318.575C246.607 318.226 247.389 318.04 248.305 318.04V316.04C247.109 316.04 246.004 316.286 245.012 316.801L245.934 318.575ZM248.305 318.04C249.333 318.04 250.173 318.291 250.867 318.758L251.983 317.098C250.917 316.381 249.677 316.04 248.305 316.04V318.04ZM250.874 318.762C251.527 319.194 251.991 319.856 252.229 320.849L254.174 320.383C253.836 318.976 253.116 317.846 251.977 317.094L250.874 318.762ZM253.529 319.671L252.353 319.263L251.697 321.153L252.873 321.561L253.529 319.671ZM252.943 320.606C253.27 319.851 253.81 319.238 254.604 318.761L253.575 317.047C252.449 317.722 251.613 318.645 251.108 319.81L252.943 320.606ZM254.604 318.761C255.389 318.29 256.319 318.04 257.425 318.04V316.04C256.004 316.04 254.709 316.366 253.575 317.047L254.604 318.761ZM268.818 329.328L268.339 330.206L268.347 330.21L268.355 330.214L268.818 329.328ZM266.346 326.976L265.481 327.478L265.488 327.488L266.346 326.976ZM266.322 320.208L265.458 319.706L265.455 319.71L266.322 320.208ZM268.674 317.88L268.189 317.006L268.183 317.009L268.674 317.88ZM275.442 317.856L275.929 316.983V316.983L275.442 317.856ZM278.562 324.096L277.567 323.996L277.562 324.046V324.096H278.562ZM278.538 324.552V325.552H279.433L279.532 324.662L278.538 324.552ZM267.858 324.552H266.858V325.552H267.858V324.552ZM267.858 322.56V321.56H266.858V322.56H267.858ZM276.954 322.56L277.423 323.443L276.954 321.56V322.56ZM275.778 323.184L274.779 323.162L274.742 324.866L276.247 324.067L275.778 323.184ZM275.322 321.24L274.454 321.736V321.736L275.322 321.24ZM274.002 319.92L273.495 320.782L273.506 320.788L274.002 319.92ZM270.162 319.92L269.666 319.052L269.655 319.058L270.162 319.92ZM268.866 321.264L267.992 320.778L267.987 320.787L268.866 321.264ZM270.426 327.144L269.979 328.038H269.979L270.426 327.144ZM274.578 327.288L274.941 328.22L274.578 327.288ZM276.114 326.232L276.869 325.576L276.14 324.739L275.383 325.55L276.114 326.232ZM277.722 328.08L278.482 328.731L279.044 328.075L278.477 327.424L277.722 328.08ZM275.538 329.64L275.916 330.566L275.924 330.563L275.538 329.64ZM272.562 329.168C271.271 329.168 270.187 328.915 269.281 328.442L268.355 330.214C269.594 330.861 271.006 331.168 272.562 331.168V329.168ZM269.297 328.45C268.391 327.956 267.701 327.295 267.205 326.464L265.488 327.488C266.175 328.641 267.133 329.548 268.339 330.206L269.297 328.45ZM267.211 326.474C266.732 325.65 266.482 324.698 266.482 323.592H264.482C264.482 325.014 264.808 326.318 265.482 327.478L267.211 326.474ZM266.482 323.592C266.482 322.462 266.728 321.51 267.19 320.706L265.455 319.71C264.797 320.858 264.482 322.162 264.482 323.592H266.482ZM267.187 320.71C267.674 319.871 268.33 319.223 269.166 318.751L268.183 317.009C267.035 317.657 266.122 318.561 265.458 319.706L267.187 320.71ZM269.16 318.754C270.004 318.285 270.977 318.04 272.106 318.04V316.04C270.675 316.04 269.361 316.355 268.189 317.006L269.16 318.754ZM272.106 318.04C273.204 318.04 274.145 318.278 274.955 318.729L275.929 316.983C274.788 316.346 273.504 316.04 272.106 316.04V318.04ZM274.955 318.729C275.768 319.182 276.404 319.816 276.875 320.652L278.617 319.668C277.969 318.52 277.069 317.618 275.929 316.983L274.955 318.729ZM276.875 320.652C277.337 321.469 277.586 322.461 277.586 323.664H279.586C279.586 322.179 279.276 320.835 278.617 319.668L276.875 320.652ZM277.586 323.664C277.586 323.752 277.581 323.862 277.567 323.996L279.557 324.196C279.576 324.01 279.586 323.832 279.586 323.664H277.586ZM277.562 324.096C277.562 324.223 277.556 324.338 277.544 324.442L279.532 324.662C279.553 324.478 279.562 324.289 279.562 324.096H277.562ZM278.538 323.552H267.858V325.552H278.538V323.552ZM268.858 324.552V322.56H266.858V324.552H268.858ZM267.858 323.56H276.954V321.56H267.858V323.56ZM276.486 321.677L275.31 322.301L276.247 324.067L277.423 323.443L276.486 321.677ZM276.778 323.206C276.797 322.315 276.613 321.483 276.191 320.744L274.454 321.736C274.672 322.117 274.791 322.581 274.779 323.162L276.778 323.206ZM276.191 320.744C275.782 320.029 275.213 319.46 274.498 319.052L273.506 320.788C273.911 321.02 274.223 321.331 274.454 321.736L276.191 320.744ZM274.509 319.058C273.791 318.636 272.979 318.44 272.106 318.44V320.44C272.674 320.44 273.126 320.564 273.495 320.782L274.509 319.058ZM272.106 318.44C271.221 318.44 270.398 318.634 269.666 319.052L270.658 320.788C271.047 320.566 271.519 320.44 272.106 320.44V318.44ZM269.655 319.058C268.951 319.473 268.395 320.054 267.992 320.778L269.74 321.75C269.978 321.322 270.286 321.007 270.669 320.782L269.655 319.058ZM267.987 320.787C267.589 321.521 267.41 322.355 267.41 323.256H269.41C269.41 322.621 269.535 322.127 269.745 321.741L267.987 320.787ZM267.41 323.256V323.736H269.41V323.256H267.41ZM267.41 323.736C267.41 324.663 267.625 325.523 268.079 326.287L269.798 325.265C269.548 324.845 269.41 324.345 269.41 323.736H267.41ZM268.079 326.287C268.533 327.05 269.175 327.636 269.979 328.038L270.874 326.25C270.398 326.012 270.048 325.686 269.798 325.265L268.079 326.287ZM269.979 328.038C270.779 328.438 271.672 328.624 272.634 328.624V326.624C271.932 326.624 271.354 326.49 270.874 326.25L269.979 328.038ZM272.634 328.624C273.458 328.624 274.232 328.496 274.941 328.22L274.216 326.356C273.773 326.528 273.25 326.624 272.634 326.624V328.624ZM274.941 328.22C275.666 327.938 276.301 327.497 276.845 326.914L275.383 325.55C275.031 325.927 274.643 326.19 274.216 326.356L274.941 328.22ZM275.36 326.888L276.968 328.736L278.477 327.424L276.869 325.576L275.36 326.888ZM276.963 327.429C276.496 327.974 275.9 328.405 275.153 328.717L275.924 330.563C276.937 330.139 277.796 329.53 278.482 328.731L276.963 327.429ZM275.161 328.714C274.438 329.008 273.578 329.168 272.562 329.168V331.168C273.786 331.168 274.91 330.976 275.916 330.566L275.161 328.714ZM291.476 317.64L291.029 318.534L291.036 318.538L291.476 317.64ZM293.396 319.488L292.523 319.975L292.527 319.982L293.396 319.488ZM294.092 330V331H295.092V330H294.092ZM291.092 330H290.092V331H291.092V330ZM290.276 320.496L289.548 321.182L289.554 321.187L289.559 321.193L290.276 320.496ZM286.172 320.088L286.64 320.972L286.172 320.088ZM284.9 321.384L284.016 320.917L284.011 320.927L284.9 321.384ZM284.468 330V331H285.468V330H284.468ZM281.468 330H280.468V331H281.468V330ZM281.468 317.184V316.184H280.468V317.184H281.468ZM284.324 317.184H285.324V316.184H284.324V317.184ZM284.324 320.64L283.422 321.071L285.324 320.64H284.324ZM283.82 319.584L282.943 319.103L282.697 319.552L282.918 320.015L283.82 319.584ZM285.764 317.712L286.218 318.603L286.224 318.6L285.764 317.712ZM288.74 318.04C289.631 318.04 290.387 318.213 291.029 318.534L291.923 316.746C290.965 316.267 289.897 316.04 288.74 316.04V318.04ZM291.036 318.538C291.66 318.844 292.153 319.312 292.523 319.975L294.269 319.001C293.711 318 292.924 317.236 291.916 316.742L291.036 318.538ZM292.527 319.982C292.879 320.601 293.092 321.47 293.092 322.656H295.092C295.092 321.25 294.841 320.007 294.265 318.994L292.527 319.982ZM293.092 322.656V330H295.092V322.656H293.092ZM294.092 329H291.092V331H294.092V329ZM292.092 330V323.04H290.092V330H292.092ZM292.092 323.04C292.092 321.762 291.787 320.616 290.993 319.799L289.559 321.193C289.853 321.496 290.092 322.046 290.092 323.04H292.092ZM291.004 319.81C290.242 319.002 289.207 318.656 288.044 318.656V320.656C288.801 320.656 289.254 320.87 289.548 321.182L291.004 319.81ZM288.044 318.656C287.201 318.656 286.412 318.83 285.704 319.204L286.64 320.972C287.02 320.77 287.479 320.656 288.044 320.656V318.656ZM285.704 319.204C284.972 319.592 284.408 320.174 284.016 320.917L285.784 321.851C286 321.442 286.284 321.16 286.64 320.972L285.704 319.204ZM284.011 320.927C283.628 321.671 283.468 322.553 283.468 323.52H285.468C285.468 322.759 285.596 322.217 285.789 321.841L284.011 320.927ZM283.468 323.52V330H285.468V323.52H283.468ZM284.468 329H281.468V331H284.468V329ZM282.468 330V317.184H280.468V330H282.468ZM281.468 318.184H284.324V316.184H281.468V318.184ZM283.324 317.184V320.64H285.324V317.184H283.324ZM285.226 320.209L284.722 319.153L282.918 320.015L283.422 321.071L285.226 320.209ZM284.697 320.065C285.046 319.429 285.544 318.946 286.218 318.603L285.31 316.821C284.288 317.342 283.49 318.107 282.943 319.103L284.697 320.065ZM286.224 318.6C286.926 318.236 287.756 318.04 288.74 318.04V316.04C287.484 316.04 286.33 316.292 285.304 316.824L286.224 318.6ZM299.458 329.088L298.766 329.81L298.774 329.818L299.458 329.088ZM298.306 314.352V313.352H297.306V314.352H298.306ZM301.306 314.352H302.306V313.352H301.306V314.352ZM301.762 327.192L301.02 327.863L301.029 327.872L301.038 327.882L301.762 327.192ZM304.762 327.168L305.692 326.802L305.201 325.551L304.144 326.382L304.762 327.168ZM305.602 329.304L306.235 330.078L306.799 329.616L306.532 328.938L305.602 329.304ZM304.306 329.952L304.576 330.915L304.306 329.952ZM296.194 319.68H295.194V320.68H296.194V319.68ZM296.194 317.28V316.28H295.194V317.28H296.194ZM304.738 317.28H305.738V316.28H304.738V317.28ZM304.738 319.68V320.68H305.738V319.68H304.738ZM302.722 329.168C301.48 329.168 300.669 328.853 300.142 328.358L298.774 329.818C299.782 330.763 301.147 331.168 302.722 331.168V329.168ZM300.15 328.366C299.638 327.876 299.306 327.095 299.306 325.848H297.306C297.306 327.449 297.741 328.828 298.766 329.81L300.15 328.366ZM299.306 325.848V314.352H297.306V325.848H299.306ZM298.306 315.352H301.306V313.352H298.306V315.352ZM300.306 314.352V325.776H302.306V314.352H300.306ZM300.306 325.776C300.306 326.546 300.5 327.288 301.02 327.863L302.503 326.521C302.415 326.424 302.306 326.222 302.306 325.776H300.306ZM301.038 327.882C301.585 328.456 302.309 328.696 303.082 328.696V326.696C302.734 326.696 302.579 326.6 302.486 326.502L301.038 327.882ZM303.082 328.696C303.936 328.696 304.725 328.469 305.38 327.954L304.144 326.382C303.902 326.571 303.571 326.696 303.082 326.696V328.696ZM303.831 327.534L304.671 329.67L306.532 328.938L305.692 326.802L303.831 327.534ZM304.968 328.53C304.74 328.717 304.437 328.876 304.035 328.989L304.576 330.915C305.199 330.74 305.76 330.467 306.235 330.078L304.968 328.53ZM304.035 328.989C303.613 329.108 303.176 329.168 302.722 329.168V331.168C303.355 331.168 303.974 331.084 304.576 330.915L304.035 328.989ZM297.194 319.68V317.28H295.194V319.68H297.194ZM296.194 318.28H304.738V316.28H296.194V318.28ZM303.738 317.28V319.68H305.738V317.28H303.738ZM304.738 318.68H296.194V320.68H304.738V318.68Z" fill="#330BA6" mask="url(#path-52-outside-2_61_82)"/>
</svg>
